<?xml version="1.0" encoding="utf-8"?>
<!-- Generator: Adobe Illustrator 25.2.1, SVG Export Plug-In . SVG Version: 6.00 Build 0)  -->
<svg version="1.1" id="Ebene_1" xmlns="http://www.w3.org/2000/svg" xmlns:xlink="http://www.w3.org/1999/xlink" x="0px" y="0px"
	 width="512px" height="512px" viewBox="0 0 512 512" style="enable-background:new 0 0 512 512;" xml:space="preserve">
<style type="text/css">
	.st0{fill:#666666;}
	.st1{fill:#EF3D3E;}
</style>
<g id="Favicon" transform="translate(-4.184 0)">
	<path id="Pfad_59" class="st0" d="M262.6,378c-42.8,0-82.4-23.5-103.6-61.7c-3.8-6-10.3-9.5-17.4-9.4c-3.3,0-6.5,0.7-9.4,2.2
		c-0.3,0.1-0.6,0.3-0.8,0.5c-8.9,5.5-12,18-6.8,26.7c28.6,50.2,81.5,81.4,138.1,81.4c87.9,0,159.4-72.7,159.4-162
		c0-89-71.5-161.3-159.4-161.3c-56.9,0-109.7,31-138.4,81.3c-4.4,8.9-1.9,19.6,5.8,25.8c0.7,0.5,1.4,1,2.2,1.4
		c2.9,1.4,6.1,2.2,9.3,2.2c7.4,0.1,14.2-3.9,17.7-10.4c20.8-37.7,60.3-61.1,103.4-61.2c66,0,119.7,54.8,119.7,122.2
		S328.6,378,262.6,378"/>
	<path id="Pfad_60" class="st0" d="M496.7,307.7c-10.9-3.1-21.7,3-24.6,13.2c-28.8,90.6-113,151.4-209.5,151.4
		c-127.5,0-216.6-89-216.6-216.6c0-127.1,89-215.9,216.6-215.9c96.4,0,180.6,60.6,209.4,150.5c2.8,10.4,13.5,16.5,23.9,13.7
		c0.1,0,0.1,0,0.2,0c5-1.2,9.3-4.3,11.9-8.7c3-4.9,3.8-10.9,2.1-16.5C476.4,73.5,374.6,0,262.6,0C114.5,0,7,107.5,7,255.7
		C7,404.2,114.5,512,262.6,512c112.3,0,214-73.8,247.4-179.2C513.4,322.7,507.5,311.3,496.7,307.7"/>
	<path id="Pfad_61" class="st1" d="M262.7,318.4c-34.1,0-61.7-27.7-61.7-61.8s27.7-61.7,61.8-61.7s61.7,27.7,61.7,61.8
		C324.4,290.7,296.8,318.4,262.7,318.4"/>
</g>
</svg>
