<svg xmlns="http://www.w3.org/2000/svg" width="520" height="50" viewBox="0 0 520 50">
  <g id="Placeholder_-_1HE" data-name="Placeholder - 1HE" transform="translate(-1034 -4713)">
    <g id="Rechteck_424" data-name="Rechteck 424" transform="translate(1044 4713)" fill="#3e3e3e" stroke="#ccc" stroke-width="1">
      <rect width="500" height="50" stroke="none"/>
      <rect x="0.5" y="0.5" width="499" height="49" fill="none"/>
    </g>
    <g id="_1HE" data-name="1HE" transform="translate(3222 -5406)">
      <rect id="Rechteck_356" data-name="Rechteck 356" width="10" height="50" transform="translate(-2188 10119)" fill="#efefef"/>
      <path id="Rechteck_357" data-name="Rechteck 357" d="M0,0H6A0,0,0,0,1,6,0V9a2,2,0,0,1-2,2H0a0,0,0,0,1,0,0V0A0,0,0,0,1,0,0Z" transform="translate(-2188 10119)" fill="#ccc"/>
      <circle id="Ellipse_76" data-name="Ellipse 76" cx="2.5" cy="2.5" r="2.5" transform="translate(-2186 10149)" fill="#ccc"/>
      <circle id="Ellipse_77" data-name="Ellipse 77" cx="2.5" cy="2.5" r="2.5" transform="translate(-2186 10159)" fill="#ccc"/>
    </g>
    <g id="_1HE-2" data-name="1HE" transform="translate(3732 -5406)">
      <rect id="Rechteck_356-2" data-name="Rechteck 356" width="10" height="50" transform="translate(-2188 10119)" fill="#efefef"/>
      <path id="Rechteck_357-2" data-name="Rechteck 357" d="M0,0H6A0,0,0,0,1,6,0V11a0,0,0,0,1,0,0H2A2,2,0,0,1,0,9V0A0,0,0,0,1,0,0Z" transform="translate(-2184 10119)" fill="#ccc"/>
      <circle id="Ellipse_76-2" data-name="Ellipse 76" cx="2.5" cy="2.5" r="2.5" transform="translate(-2186 10149)" fill="#ccc"/>
      <circle id="Ellipse_77-2" data-name="Ellipse 77" cx="2.5" cy="2.5" r="2.5" transform="translate(-2186 10159)" fill="#ccc"/>
    </g>
  </g>
</svg>
