<svg xmlns="http://www.w3.org/2000/svg" width="520" height="100" viewBox="0 0 520 100">
  <g id="Placeholder_-_2HE" data-name="Placeholder - 2HE" transform="translate(-1034 -4713)">
    <g id="Rechteck_344" data-name="Rechteck 344" transform="translate(1044 4713)" fill="#3e3e3e" stroke="#ccc" stroke-width="1">
      <rect width="500" height="100" stroke="none"/>
      <rect x="0.5" y="0.5" width="499" height="99" fill="none"/>
    </g>
    <g id="Montage" transform="translate(1034 4713)">
      <rect id="Rechteck_354" data-name="Rechteck 354" width="10" height="100" fill="#efefef"/>
      <path id="Rechteck_355" data-name="Rechteck 355" d="M0,0H5A2,2,0,0,1,7,2V28a2,2,0,0,1-2,2H0a0,0,0,0,1,0,0V0A0,0,0,0,1,0,0Z" transform="translate(0 35)" fill="#ccc"/>
      <circle id="Ellipse_72" data-name="Ellipse 72" cx="2.5" cy="2.5" r="2.5" transform="translate(2 5)" fill="#ccc"/>
      <circle id="Ellipse_73" data-name="Ellipse 73" cx="2.5" cy="2.5" r="2.5" transform="translate(2 15)" fill="#ccc"/>
      <circle id="Ellipse_74" data-name="Ellipse 74" cx="2.5" cy="2.5" r="2.5" transform="translate(2 79.33)" fill="#ccc"/>
      <circle id="Ellipse_75" data-name="Ellipse 75" cx="2.5" cy="2.5" r="2.5" transform="translate(2 89)" fill="#ccc"/>
    </g>
    <g id="Montage-2" data-name="Montage" transform="translate(1554 4813) rotate(180)">
      <rect id="Rechteck_354-2" data-name="Rechteck 354" width="10" height="100" fill="#efefef"/>
      <path id="Rechteck_355-2" data-name="Rechteck 355" d="M0,0H5A2,2,0,0,1,7,2V28a2,2,0,0,1-2,2H0a0,0,0,0,1,0,0V0A0,0,0,0,1,0,0Z" transform="translate(0 35)" fill="#ccc"/>
      <circle id="Ellipse_72-2" data-name="Ellipse 72" cx="2.5" cy="2.5" r="2.5" transform="translate(2 5)" fill="#ccc"/>
      <circle id="Ellipse_73-2" data-name="Ellipse 73" cx="2.5" cy="2.5" r="2.5" transform="translate(2 15)" fill="#ccc"/>
      <circle id="Ellipse_74-2" data-name="Ellipse 74" cx="2.5" cy="2.5" r="2.5" transform="translate(2 79.33)" fill="#ccc"/>
      <circle id="Ellipse_75-2" data-name="Ellipse 75" cx="2.5" cy="2.5" r="2.5" transform="translate(2 89)" fill="#ccc"/>
    </g>
  </g>
</svg>
