<svg xmlns="http://www.w3.org/2000/svg" xmlns:xlink="http://www.w3.org/1999/xlink" width="520" height="50" viewBox="0 0 520 50">
  <defs>
    <clipPath id="clip-path">
      <rect width="136" height="3" fill="none"/>
    </clipPath>
    <clipPath id="clip-path-4">
      <rect width="136" height="4" fill="none"/>
    </clipPath>
  </defs>
  <g id="_24_Port_Patchpanel_-Fiber_Optic" data-name="24 Port Patchpanel -Fiber Optic" transform="translate(-1034 -4713)">
    <g id="Rechteck_424" data-name="Rechteck 424" transform="translate(1044 4713)" fill="#3e3e3e" stroke="#ccc" stroke-width="1">
      <rect width="500" height="50" stroke="none"/>
      <rect x="0.5" y="0.5" width="499" height="49" fill="none"/>
    </g>
    <g id="_1HE" data-name="1HE" transform="translate(3222 -5406)">
      <rect id="Rechteck_356" data-name="Rechteck 356" width="10" height="50" transform="translate(-2188 10119)" fill="#efefef"/>
      <path id="Rechteck_357" data-name="Rechteck 357" d="M0,0H6A0,0,0,0,1,6,0V9a2,2,0,0,1-2,2H0a0,0,0,0,1,0,0V0A0,0,0,0,1,0,0Z" transform="translate(-2188 10119)" fill="#ccc"/>
      <circle id="Ellipse_76" data-name="Ellipse 76" cx="2.5" cy="2.5" r="2.5" transform="translate(-2186 10149)" fill="#ccc"/>
      <circle id="Ellipse_77" data-name="Ellipse 77" cx="2.5" cy="2.5" r="2.5" transform="translate(-2186 10159)" fill="#ccc"/>
    </g>
    <g id="_1HE-2" data-name="1HE" transform="translate(3732 -5406)">
      <rect id="Rechteck_356-2" data-name="Rechteck 356" width="10" height="50" transform="translate(-2188 10119)" fill="#efefef"/>
      <path id="Rechteck_357-2" data-name="Rechteck 357" d="M0,0H6A0,0,0,0,1,6,0V11a0,0,0,0,1,0,0H2A2,2,0,0,1,0,9V0A0,0,0,0,1,0,0Z" transform="translate(-2184 10119)" fill="#ccc"/>
      <circle id="Ellipse_76-2" data-name="Ellipse 76" cx="2.5" cy="2.5" r="2.5" transform="translate(-2186 10149)" fill="#ccc"/>
      <circle id="Ellipse_77-2" data-name="Ellipse 77" cx="2.5" cy="2.5" r="2.5" transform="translate(-2186 10159)" fill="#ccc"/>
    </g>
    <g id="Wiederholungsraster_49" data-name="Wiederholungsraster 49" transform="translate(1059 4732)" clip-path="url(#clip-path)">
      <g transform="translate(-1144 -4725)">
        <rect id="Rechteck_425" data-name="Rechteck 425" width="10" height="3" rx="1" transform="translate(1144 4725)" fill="#fff"/>
      </g>
      <g transform="translate(-1126 -4725)">
        <rect id="Rechteck_425-2" data-name="Rechteck 425" width="10" height="3" rx="1" transform="translate(1144 4725)" fill="#fff"/>
      </g>
      <g transform="translate(-1108 -4725)">
        <rect id="Rechteck_425-3" data-name="Rechteck 425" width="10" height="3" rx="1" transform="translate(1144 4725)" fill="#fff"/>
      </g>
      <g transform="translate(-1090 -4725)">
        <rect id="Rechteck_425-4" data-name="Rechteck 425" width="10" height="3" rx="1" transform="translate(1144 4725)" fill="#fff"/>
      </g>
      <g transform="translate(-1072 -4725)">
        <rect id="Rechteck_425-5" data-name="Rechteck 425" width="10" height="3" rx="1" transform="translate(1144 4725)" fill="#fff"/>
      </g>
      <g transform="translate(-1054 -4725)">
        <rect id="Rechteck_425-6" data-name="Rechteck 425" width="10" height="3" rx="1" transform="translate(1144 4725)" fill="#fff"/>
      </g>
      <g transform="translate(-1036 -4725)">
        <rect id="Rechteck_425-7" data-name="Rechteck 425" width="10" height="3" rx="1" transform="translate(1144 4725)" fill="#fff"/>
      </g>
      <g transform="translate(-1018 -4725)">
        <rect id="Rechteck_425-8" data-name="Rechteck 425" width="10" height="3" rx="1" transform="translate(1144 4725)" fill="#fff"/>
      </g>
    </g>
    <g id="Wiederholungsraster_50" data-name="Wiederholungsraster 50" transform="translate(1226 4732)" clip-path="url(#clip-path)">
      <g transform="translate(-1144 -4725)">
        <rect id="Rechteck_425-9" data-name="Rechteck 425" width="10" height="3" rx="1" transform="translate(1144 4725)" fill="#fff"/>
      </g>
      <g transform="translate(-1126 -4725)">
        <rect id="Rechteck_425-10" data-name="Rechteck 425" width="10" height="3" rx="1" transform="translate(1144 4725)" fill="#fff"/>
      </g>
      <g transform="translate(-1108 -4725)">
        <rect id="Rechteck_425-11" data-name="Rechteck 425" width="10" height="3" rx="1" transform="translate(1144 4725)" fill="#fff"/>
      </g>
      <g transform="translate(-1090 -4725)">
        <rect id="Rechteck_425-12" data-name="Rechteck 425" width="10" height="3" rx="1" transform="translate(1144 4725)" fill="#fff"/>
      </g>
      <g transform="translate(-1072 -4725)">
        <rect id="Rechteck_425-13" data-name="Rechteck 425" width="10" height="3" rx="1" transform="translate(1144 4725)" fill="#fff"/>
      </g>
      <g transform="translate(-1054 -4725)">
        <rect id="Rechteck_425-14" data-name="Rechteck 425" width="10" height="3" rx="1" transform="translate(1144 4725)" fill="#fff"/>
      </g>
      <g transform="translate(-1036 -4725)">
        <rect id="Rechteck_425-15" data-name="Rechteck 425" width="10" height="3" rx="1" transform="translate(1144 4725)" fill="#fff"/>
      </g>
      <g transform="translate(-1018 -4725)">
        <rect id="Rechteck_425-16" data-name="Rechteck 425" width="10" height="3" rx="1" transform="translate(1144 4725)" fill="#fff"/>
      </g>
    </g>
    <g id="Wiederholungsraster_51" data-name="Wiederholungsraster 51" transform="translate(1393 4732)" clip-path="url(#clip-path)">
      <g transform="translate(-1144 -4725)">
        <rect id="Rechteck_425-17" data-name="Rechteck 425" width="10" height="3" rx="1" transform="translate(1144 4725)" fill="#fff"/>
      </g>
      <g transform="translate(-1126 -4725)">
        <rect id="Rechteck_425-18" data-name="Rechteck 425" width="10" height="3" rx="1" transform="translate(1144 4725)" fill="#fff"/>
      </g>
      <g transform="translate(-1108 -4725)">
        <rect id="Rechteck_425-19" data-name="Rechteck 425" width="10" height="3" rx="1" transform="translate(1144 4725)" fill="#fff"/>
      </g>
      <g transform="translate(-1090 -4725)">
        <rect id="Rechteck_425-20" data-name="Rechteck 425" width="10" height="3" rx="1" transform="translate(1144 4725)" fill="#fff"/>
      </g>
      <g transform="translate(-1072 -4725)">
        <rect id="Rechteck_425-21" data-name="Rechteck 425" width="10" height="3" rx="1" transform="translate(1144 4725)" fill="#fff"/>
      </g>
      <g transform="translate(-1054 -4725)">
        <rect id="Rechteck_425-22" data-name="Rechteck 425" width="10" height="3" rx="1" transform="translate(1144 4725)" fill="#fff"/>
      </g>
      <g transform="translate(-1036 -4725)">
        <rect id="Rechteck_425-23" data-name="Rechteck 425" width="10" height="3" rx="1" transform="translate(1144 4725)" fill="#fff"/>
      </g>
      <g transform="translate(-1018 -4725)">
        <rect id="Rechteck_425-24" data-name="Rechteck 425" width="10" height="3" rx="1" transform="translate(1144 4725)" fill="#fff"/>
      </g>
    </g>
    <g id="Wiederholungsraster_69" data-name="Wiederholungsraster 69" transform="translate(1059 4740)" clip-path="url(#clip-path-4)">
      <g id="Gruppe_181" data-name="Gruppe 181" transform="translate(-1055 -4729)">
        <rect id="Rechteck_421" data-name="Rechteck 421" width="4" height="4" transform="translate(1061 4729)" fill="#d31ea2"/>
        <circle id="Ellipse_114" data-name="Ellipse 114" cx="1" cy="1" r="1" transform="translate(1062 4730)" fill="#fff"/>
        <rect id="Rechteck_421-2" data-name="Rechteck 421" width="4" height="4" transform="translate(1055 4729)" fill="#d31ea2"/>
        <circle id="Ellipse_113" data-name="Ellipse 113" cx="1" cy="1" r="1" transform="translate(1056 4730)" fill="#fff"/>
      </g>
      <g id="Gruppe_181-2" data-name="Gruppe 181" transform="translate(-1037 -4729)">
        <rect id="Rechteck_421-3" data-name="Rechteck 421" width="4" height="4" transform="translate(1061 4729)" fill="#d31ea2"/>
        <circle id="Ellipse_114-2" data-name="Ellipse 114" cx="1" cy="1" r="1" transform="translate(1062 4730)" fill="#fff"/>
        <rect id="Rechteck_421-4" data-name="Rechteck 421" width="4" height="4" transform="translate(1055 4729)" fill="#d31ea2"/>
        <circle id="Ellipse_113-2" data-name="Ellipse 113" cx="1" cy="1" r="1" transform="translate(1056 4730)" fill="#fff"/>
      </g>
      <g id="Gruppe_181-3" data-name="Gruppe 181" transform="translate(-1019 -4729)">
        <rect id="Rechteck_421-5" data-name="Rechteck 421" width="4" height="4" transform="translate(1061 4729)" fill="#d31ea2"/>
        <circle id="Ellipse_114-3" data-name="Ellipse 114" cx="1" cy="1" r="1" transform="translate(1062 4730)" fill="#fff"/>
        <rect id="Rechteck_421-6" data-name="Rechteck 421" width="4" height="4" transform="translate(1055 4729)" fill="#d31ea2"/>
        <circle id="Ellipse_113-3" data-name="Ellipse 113" cx="1" cy="1" r="1" transform="translate(1056 4730)" fill="#fff"/>
      </g>
      <g id="Gruppe_181-4" data-name="Gruppe 181" transform="translate(-1001 -4729)">
        <rect id="Rechteck_421-7" data-name="Rechteck 421" width="4" height="4" transform="translate(1061 4729)" fill="#d31ea2"/>
        <circle id="Ellipse_114-4" data-name="Ellipse 114" cx="1" cy="1" r="1" transform="translate(1062 4730)" fill="#fff"/>
        <rect id="Rechteck_421-8" data-name="Rechteck 421" width="4" height="4" transform="translate(1055 4729)" fill="#d31ea2"/>
        <circle id="Ellipse_113-4" data-name="Ellipse 113" cx="1" cy="1" r="1" transform="translate(1056 4730)" fill="#fff"/>
      </g>
      <g id="Gruppe_181-5" data-name="Gruppe 181" transform="translate(-983 -4729)">
        <rect id="Rechteck_421-9" data-name="Rechteck 421" width="4" height="4" transform="translate(1061 4729)" fill="#d31ea2"/>
        <circle id="Ellipse_114-5" data-name="Ellipse 114" cx="1" cy="1" r="1" transform="translate(1062 4730)" fill="#fff"/>
        <rect id="Rechteck_421-10" data-name="Rechteck 421" width="4" height="4" transform="translate(1055 4729)" fill="#d31ea2"/>
        <circle id="Ellipse_113-5" data-name="Ellipse 113" cx="1" cy="1" r="1" transform="translate(1056 4730)" fill="#fff"/>
      </g>
      <g id="Gruppe_181-6" data-name="Gruppe 181" transform="translate(-965 -4729)">
        <rect id="Rechteck_421-11" data-name="Rechteck 421" width="4" height="4" transform="translate(1061 4729)" fill="#d31ea2"/>
        <circle id="Ellipse_114-6" data-name="Ellipse 114" cx="1" cy="1" r="1" transform="translate(1062 4730)" fill="#fff"/>
        <rect id="Rechteck_421-12" data-name="Rechteck 421" width="4" height="4" transform="translate(1055 4729)" fill="#d31ea2"/>
        <circle id="Ellipse_113-6" data-name="Ellipse 113" cx="1" cy="1" r="1" transform="translate(1056 4730)" fill="#fff"/>
      </g>
      <g id="Gruppe_181-7" data-name="Gruppe 181" transform="translate(-947 -4729)">
        <rect id="Rechteck_421-13" data-name="Rechteck 421" width="4" height="4" transform="translate(1061 4729)" fill="#d31ea2"/>
        <circle id="Ellipse_114-7" data-name="Ellipse 114" cx="1" cy="1" r="1" transform="translate(1062 4730)" fill="#fff"/>
        <rect id="Rechteck_421-14" data-name="Rechteck 421" width="4" height="4" transform="translate(1055 4729)" fill="#d31ea2"/>
        <circle id="Ellipse_113-7" data-name="Ellipse 113" cx="1" cy="1" r="1" transform="translate(1056 4730)" fill="#fff"/>
      </g>
      <g id="Gruppe_181-8" data-name="Gruppe 181" transform="translate(-929 -4729)">
        <rect id="Rechteck_421-15" data-name="Rechteck 421" width="4" height="4" transform="translate(1061 4729)" fill="#d31ea2"/>
        <circle id="Ellipse_114-8" data-name="Ellipse 114" cx="1" cy="1" r="1" transform="translate(1062 4730)" fill="#fff"/>
        <rect id="Rechteck_421-16" data-name="Rechteck 421" width="4" height="4" transform="translate(1055 4729)" fill="#d31ea2"/>
        <circle id="Ellipse_113-8" data-name="Ellipse 113" cx="1" cy="1" r="1" transform="translate(1056 4730)" fill="#fff"/>
      </g>
    </g>
    <g id="Wiederholungsraster_70" data-name="Wiederholungsraster 70" transform="translate(1226 4740)" clip-path="url(#clip-path-4)">
      <g id="Gruppe_181-9" data-name="Gruppe 181" transform="translate(-1055 -4729)">
        <rect id="Rechteck_421-17" data-name="Rechteck 421" width="4" height="4" transform="translate(1061 4729)" fill="#d31ea2"/>
        <circle id="Ellipse_114-9" data-name="Ellipse 114" cx="1" cy="1" r="1" transform="translate(1062 4730)" fill="#fff"/>
        <rect id="Rechteck_421-18" data-name="Rechteck 421" width="4" height="4" transform="translate(1055 4729)" fill="#d31ea2"/>
        <circle id="Ellipse_113-9" data-name="Ellipse 113" cx="1" cy="1" r="1" transform="translate(1056 4730)" fill="#fff"/>
      </g>
      <g id="Gruppe_181-10" data-name="Gruppe 181" transform="translate(-1037 -4729)">
        <rect id="Rechteck_421-19" data-name="Rechteck 421" width="4" height="4" transform="translate(1061 4729)" fill="#d31ea2"/>
        <circle id="Ellipse_114-10" data-name="Ellipse 114" cx="1" cy="1" r="1" transform="translate(1062 4730)" fill="#fff"/>
        <rect id="Rechteck_421-20" data-name="Rechteck 421" width="4" height="4" transform="translate(1055 4729)" fill="#d31ea2"/>
        <circle id="Ellipse_113-10" data-name="Ellipse 113" cx="1" cy="1" r="1" transform="translate(1056 4730)" fill="#fff"/>
      </g>
      <g id="Gruppe_181-11" data-name="Gruppe 181" transform="translate(-1019 -4729)">
        <rect id="Rechteck_421-21" data-name="Rechteck 421" width="4" height="4" transform="translate(1061 4729)" fill="#d31ea2"/>
        <circle id="Ellipse_114-11" data-name="Ellipse 114" cx="1" cy="1" r="1" transform="translate(1062 4730)" fill="#fff"/>
        <rect id="Rechteck_421-22" data-name="Rechteck 421" width="4" height="4" transform="translate(1055 4729)" fill="#d31ea2"/>
        <circle id="Ellipse_113-11" data-name="Ellipse 113" cx="1" cy="1" r="1" transform="translate(1056 4730)" fill="#fff"/>
      </g>
      <g id="Gruppe_181-12" data-name="Gruppe 181" transform="translate(-1001 -4729)">
        <rect id="Rechteck_421-23" data-name="Rechteck 421" width="4" height="4" transform="translate(1061 4729)" fill="#d31ea2"/>
        <circle id="Ellipse_114-12" data-name="Ellipse 114" cx="1" cy="1" r="1" transform="translate(1062 4730)" fill="#fff"/>
        <rect id="Rechteck_421-24" data-name="Rechteck 421" width="4" height="4" transform="translate(1055 4729)" fill="#d31ea2"/>
        <circle id="Ellipse_113-12" data-name="Ellipse 113" cx="1" cy="1" r="1" transform="translate(1056 4730)" fill="#fff"/>
      </g>
      <g id="Gruppe_181-13" data-name="Gruppe 181" transform="translate(-983 -4729)">
        <rect id="Rechteck_421-25" data-name="Rechteck 421" width="4" height="4" transform="translate(1061 4729)" fill="#d31ea2"/>
        <circle id="Ellipse_114-13" data-name="Ellipse 114" cx="1" cy="1" r="1" transform="translate(1062 4730)" fill="#fff"/>
        <rect id="Rechteck_421-26" data-name="Rechteck 421" width="4" height="4" transform="translate(1055 4729)" fill="#d31ea2"/>
        <circle id="Ellipse_113-13" data-name="Ellipse 113" cx="1" cy="1" r="1" transform="translate(1056 4730)" fill="#fff"/>
      </g>
      <g id="Gruppe_181-14" data-name="Gruppe 181" transform="translate(-965 -4729)">
        <rect id="Rechteck_421-27" data-name="Rechteck 421" width="4" height="4" transform="translate(1061 4729)" fill="#d31ea2"/>
        <circle id="Ellipse_114-14" data-name="Ellipse 114" cx="1" cy="1" r="1" transform="translate(1062 4730)" fill="#fff"/>
        <rect id="Rechteck_421-28" data-name="Rechteck 421" width="4" height="4" transform="translate(1055 4729)" fill="#d31ea2"/>
        <circle id="Ellipse_113-14" data-name="Ellipse 113" cx="1" cy="1" r="1" transform="translate(1056 4730)" fill="#fff"/>
      </g>
      <g id="Gruppe_181-15" data-name="Gruppe 181" transform="translate(-947 -4729)">
        <rect id="Rechteck_421-29" data-name="Rechteck 421" width="4" height="4" transform="translate(1061 4729)" fill="#d31ea2"/>
        <circle id="Ellipse_114-15" data-name="Ellipse 114" cx="1" cy="1" r="1" transform="translate(1062 4730)" fill="#fff"/>
        <rect id="Rechteck_421-30" data-name="Rechteck 421" width="4" height="4" transform="translate(1055 4729)" fill="#d31ea2"/>
        <circle id="Ellipse_113-15" data-name="Ellipse 113" cx="1" cy="1" r="1" transform="translate(1056 4730)" fill="#fff"/>
      </g>
      <g id="Gruppe_181-16" data-name="Gruppe 181" transform="translate(-929 -4729)">
        <rect id="Rechteck_421-31" data-name="Rechteck 421" width="4" height="4" transform="translate(1061 4729)" fill="#d31ea2"/>
        <circle id="Ellipse_114-16" data-name="Ellipse 114" cx="1" cy="1" r="1" transform="translate(1062 4730)" fill="#fff"/>
        <rect id="Rechteck_421-32" data-name="Rechteck 421" width="4" height="4" transform="translate(1055 4729)" fill="#d31ea2"/>
        <circle id="Ellipse_113-16" data-name="Ellipse 113" cx="1" cy="1" r="1" transform="translate(1056 4730)" fill="#fff"/>
      </g>
    </g>
    <g id="Wiederholungsraster_71" data-name="Wiederholungsraster 71" transform="translate(1393 4740)" clip-path="url(#clip-path-4)">
      <g id="Gruppe_181-17" data-name="Gruppe 181" transform="translate(-1055 -4729)">
        <rect id="Rechteck_421-33" data-name="Rechteck 421" width="4" height="4" transform="translate(1061 4729)" fill="#d31ea2"/>
        <circle id="Ellipse_114-17" data-name="Ellipse 114" cx="1" cy="1" r="1" transform="translate(1062 4730)" fill="#fff"/>
        <rect id="Rechteck_421-34" data-name="Rechteck 421" width="4" height="4" transform="translate(1055 4729)" fill="#d31ea2"/>
        <circle id="Ellipse_113-17" data-name="Ellipse 113" cx="1" cy="1" r="1" transform="translate(1056 4730)" fill="#fff"/>
      </g>
      <g id="Gruppe_181-18" data-name="Gruppe 181" transform="translate(-1037 -4729)">
        <rect id="Rechteck_421-35" data-name="Rechteck 421" width="4" height="4" transform="translate(1061 4729)" fill="#d31ea2"/>
        <circle id="Ellipse_114-18" data-name="Ellipse 114" cx="1" cy="1" r="1" transform="translate(1062 4730)" fill="#fff"/>
        <rect id="Rechteck_421-36" data-name="Rechteck 421" width="4" height="4" transform="translate(1055 4729)" fill="#d31ea2"/>
        <circle id="Ellipse_113-18" data-name="Ellipse 113" cx="1" cy="1" r="1" transform="translate(1056 4730)" fill="#fff"/>
      </g>
      <g id="Gruppe_181-19" data-name="Gruppe 181" transform="translate(-1019 -4729)">
        <rect id="Rechteck_421-37" data-name="Rechteck 421" width="4" height="4" transform="translate(1061 4729)" fill="#d31ea2"/>
        <circle id="Ellipse_114-19" data-name="Ellipse 114" cx="1" cy="1" r="1" transform="translate(1062 4730)" fill="#fff"/>
        <rect id="Rechteck_421-38" data-name="Rechteck 421" width="4" height="4" transform="translate(1055 4729)" fill="#d31ea2"/>
        <circle id="Ellipse_113-19" data-name="Ellipse 113" cx="1" cy="1" r="1" transform="translate(1056 4730)" fill="#fff"/>
      </g>
      <g id="Gruppe_181-20" data-name="Gruppe 181" transform="translate(-1001 -4729)">
        <rect id="Rechteck_421-39" data-name="Rechteck 421" width="4" height="4" transform="translate(1061 4729)" fill="#d31ea2"/>
        <circle id="Ellipse_114-20" data-name="Ellipse 114" cx="1" cy="1" r="1" transform="translate(1062 4730)" fill="#fff"/>
        <rect id="Rechteck_421-40" data-name="Rechteck 421" width="4" height="4" transform="translate(1055 4729)" fill="#d31ea2"/>
        <circle id="Ellipse_113-20" data-name="Ellipse 113" cx="1" cy="1" r="1" transform="translate(1056 4730)" fill="#fff"/>
      </g>
      <g id="Gruppe_181-21" data-name="Gruppe 181" transform="translate(-983 -4729)">
        <rect id="Rechteck_421-41" data-name="Rechteck 421" width="4" height="4" transform="translate(1061 4729)" fill="#d31ea2"/>
        <circle id="Ellipse_114-21" data-name="Ellipse 114" cx="1" cy="1" r="1" transform="translate(1062 4730)" fill="#fff"/>
        <rect id="Rechteck_421-42" data-name="Rechteck 421" width="4" height="4" transform="translate(1055 4729)" fill="#d31ea2"/>
        <circle id="Ellipse_113-21" data-name="Ellipse 113" cx="1" cy="1" r="1" transform="translate(1056 4730)" fill="#fff"/>
      </g>
      <g id="Gruppe_181-22" data-name="Gruppe 181" transform="translate(-965 -4729)">
        <rect id="Rechteck_421-43" data-name="Rechteck 421" width="4" height="4" transform="translate(1061 4729)" fill="#d31ea2"/>
        <circle id="Ellipse_114-22" data-name="Ellipse 114" cx="1" cy="1" r="1" transform="translate(1062 4730)" fill="#fff"/>
        <rect id="Rechteck_421-44" data-name="Rechteck 421" width="4" height="4" transform="translate(1055 4729)" fill="#d31ea2"/>
        <circle id="Ellipse_113-22" data-name="Ellipse 113" cx="1" cy="1" r="1" transform="translate(1056 4730)" fill="#fff"/>
      </g>
      <g id="Gruppe_181-23" data-name="Gruppe 181" transform="translate(-947 -4729)">
        <rect id="Rechteck_421-45" data-name="Rechteck 421" width="4" height="4" transform="translate(1061 4729)" fill="#d31ea2"/>
        <circle id="Ellipse_114-23" data-name="Ellipse 114" cx="1" cy="1" r="1" transform="translate(1062 4730)" fill="#fff"/>
        <rect id="Rechteck_421-46" data-name="Rechteck 421" width="4" height="4" transform="translate(1055 4729)" fill="#d31ea2"/>
        <circle id="Ellipse_113-23" data-name="Ellipse 113" cx="1" cy="1" r="1" transform="translate(1056 4730)" fill="#fff"/>
      </g>
      <g id="Gruppe_181-24" data-name="Gruppe 181" transform="translate(-929 -4729)">
        <rect id="Rechteck_421-47" data-name="Rechteck 421" width="4" height="4" transform="translate(1061 4729)" fill="#d31ea2"/>
        <circle id="Ellipse_114-24" data-name="Ellipse 114" cx="1" cy="1" r="1" transform="translate(1062 4730)" fill="#fff"/>
        <rect id="Rechteck_421-48" data-name="Rechteck 421" width="4" height="4" transform="translate(1055 4729)" fill="#d31ea2"/>
        <circle id="Ellipse_113-24" data-name="Ellipse 113" cx="1" cy="1" r="1" transform="translate(1056 4730)" fill="#fff"/>
      </g>
    </g>
  </g>
</svg>
