<svg xmlns="http://www.w3.org/2000/svg" xmlns:xlink="http://www.w3.org/1999/xlink" width="520" height="50" viewBox="0 0 520 50">
  <defs>
    <clipPath id="clip-path">
      <rect width="136" height="3" fill="none"/>
    </clipPath>
    <clipPath id="clip-path-7">
      <rect width="136" height="26" fill="none"/>
    </clipPath>
  </defs>
  <g id="_48_Port_Patchpanel_-_Fiber_Optic" data-name="48 Port Patchpanel - Fiber Optic" transform="translate(-1034 -4713)">
    <g id="Rechteck_424" data-name="Rechteck 424" transform="translate(1044 4713)" fill="#3e3e3e" stroke="#ccc" stroke-width="1">
      <rect width="500" height="50" stroke="none"/>
      <rect x="0.5" y="0.5" width="499" height="49" fill="none"/>
    </g>
    <g id="_1HE" data-name="1HE" transform="translate(3222 -5406)">
      <rect id="Rechteck_356" data-name="Rechteck 356" width="10" height="50" transform="translate(-2188 10119)" fill="#efefef"/>
      <path id="Rechteck_357" data-name="Rechteck 357" d="M0,0H6A0,0,0,0,1,6,0V9a2,2,0,0,1-2,2H0a0,0,0,0,1,0,0V0A0,0,0,0,1,0,0Z" transform="translate(-2188 10119)" fill="#ccc"/>
      <circle id="Ellipse_76" data-name="Ellipse 76" cx="2.5" cy="2.5" r="2.5" transform="translate(-2186 10149)" fill="#ccc"/>
      <circle id="Ellipse_77" data-name="Ellipse 77" cx="2.5" cy="2.5" r="2.5" transform="translate(-2186 10159)" fill="#ccc"/>
    </g>
    <g id="_1HE-2" data-name="1HE" transform="translate(3732 -5406)">
      <rect id="Rechteck_356-2" data-name="Rechteck 356" width="10" height="50" transform="translate(-2188 10119)" fill="#efefef"/>
      <path id="Rechteck_357-2" data-name="Rechteck 357" d="M0,0H6A0,0,0,0,1,6,0V11a0,0,0,0,1,0,0H2A2,2,0,0,1,0,9V0A0,0,0,0,1,0,0Z" transform="translate(-2184 10119)" fill="#ccc"/>
      <circle id="Ellipse_76-2" data-name="Ellipse 76" cx="2.5" cy="2.5" r="2.5" transform="translate(-2186 10149)" fill="#ccc"/>
      <circle id="Ellipse_77-2" data-name="Ellipse 77" cx="2.5" cy="2.5" r="2.5" transform="translate(-2186 10159)" fill="#ccc"/>
    </g>
    <g id="Wiederholungsraster_54" data-name="Wiederholungsraster 54" transform="translate(1393 4722)" clip-path="url(#clip-path)">
      <g transform="translate(-1144 -4725)">
        <rect id="Rechteck_425" data-name="Rechteck 425" width="10" height="3" rx="1" transform="translate(1144 4725)" fill="#fff"/>
      </g>
      <g transform="translate(-1126 -4725)">
        <rect id="Rechteck_425-2" data-name="Rechteck 425" width="10" height="3" rx="1" transform="translate(1144 4725)" fill="#fff"/>
      </g>
      <g transform="translate(-1108 -4725)">
        <rect id="Rechteck_425-3" data-name="Rechteck 425" width="10" height="3" rx="1" transform="translate(1144 4725)" fill="#fff"/>
      </g>
      <g transform="translate(-1090 -4725)">
        <rect id="Rechteck_425-4" data-name="Rechteck 425" width="10" height="3" rx="1" transform="translate(1144 4725)" fill="#fff"/>
      </g>
      <g transform="translate(-1072 -4725)">
        <rect id="Rechteck_425-5" data-name="Rechteck 425" width="10" height="3" rx="1" transform="translate(1144 4725)" fill="#fff"/>
      </g>
      <g transform="translate(-1054 -4725)">
        <rect id="Rechteck_425-6" data-name="Rechteck 425" width="10" height="3" rx="1" transform="translate(1144 4725)" fill="#fff"/>
      </g>
      <g transform="translate(-1036 -4725)">
        <rect id="Rechteck_425-7" data-name="Rechteck 425" width="10" height="3" rx="1" transform="translate(1144 4725)" fill="#fff"/>
      </g>
      <g transform="translate(-1018 -4725)">
        <rect id="Rechteck_425-8" data-name="Rechteck 425" width="10" height="3" rx="1" transform="translate(1144 4725)" fill="#fff"/>
      </g>
    </g>
    <g id="Wiederholungsraster_60" data-name="Wiederholungsraster 60" transform="translate(1226 4722)" clip-path="url(#clip-path)">
      <g transform="translate(-1144 -4725)">
        <rect id="Rechteck_425-9" data-name="Rechteck 425" width="10" height="3" rx="1" transform="translate(1144 4725)" fill="#fff"/>
      </g>
      <g transform="translate(-1126 -4725)">
        <rect id="Rechteck_425-10" data-name="Rechteck 425" width="10" height="3" rx="1" transform="translate(1144 4725)" fill="#fff"/>
      </g>
      <g transform="translate(-1108 -4725)">
        <rect id="Rechteck_425-11" data-name="Rechteck 425" width="10" height="3" rx="1" transform="translate(1144 4725)" fill="#fff"/>
      </g>
      <g transform="translate(-1090 -4725)">
        <rect id="Rechteck_425-12" data-name="Rechteck 425" width="10" height="3" rx="1" transform="translate(1144 4725)" fill="#fff"/>
      </g>
      <g transform="translate(-1072 -4725)">
        <rect id="Rechteck_425-13" data-name="Rechteck 425" width="10" height="3" rx="1" transform="translate(1144 4725)" fill="#fff"/>
      </g>
      <g transform="translate(-1054 -4725)">
        <rect id="Rechteck_425-14" data-name="Rechteck 425" width="10" height="3" rx="1" transform="translate(1144 4725)" fill="#fff"/>
      </g>
      <g transform="translate(-1036 -4725)">
        <rect id="Rechteck_425-15" data-name="Rechteck 425" width="10" height="3" rx="1" transform="translate(1144 4725)" fill="#fff"/>
      </g>
      <g transform="translate(-1018 -4725)">
        <rect id="Rechteck_425-16" data-name="Rechteck 425" width="10" height="3" rx="1" transform="translate(1144 4725)" fill="#fff"/>
      </g>
    </g>
    <g id="Wiederholungsraster_64" data-name="Wiederholungsraster 64" transform="translate(1059 4722)" clip-path="url(#clip-path)">
      <g transform="translate(-1144 -4725)">
        <rect id="Rechteck_425-17" data-name="Rechteck 425" width="10" height="3" rx="1" transform="translate(1144 4725)" fill="#fff"/>
      </g>
      <g transform="translate(-1126 -4725)">
        <rect id="Rechteck_425-18" data-name="Rechteck 425" width="10" height="3" rx="1" transform="translate(1144 4725)" fill="#fff"/>
      </g>
      <g transform="translate(-1108 -4725)">
        <rect id="Rechteck_425-19" data-name="Rechteck 425" width="10" height="3" rx="1" transform="translate(1144 4725)" fill="#fff"/>
      </g>
      <g transform="translate(-1090 -4725)">
        <rect id="Rechteck_425-20" data-name="Rechteck 425" width="10" height="3" rx="1" transform="translate(1144 4725)" fill="#fff"/>
      </g>
      <g transform="translate(-1072 -4725)">
        <rect id="Rechteck_425-21" data-name="Rechteck 425" width="10" height="3" rx="1" transform="translate(1144 4725)" fill="#fff"/>
      </g>
      <g transform="translate(-1054 -4725)">
        <rect id="Rechteck_425-22" data-name="Rechteck 425" width="10" height="3" rx="1" transform="translate(1144 4725)" fill="#fff"/>
      </g>
      <g transform="translate(-1036 -4725)">
        <rect id="Rechteck_425-23" data-name="Rechteck 425" width="10" height="3" rx="1" transform="translate(1144 4725)" fill="#fff"/>
      </g>
      <g transform="translate(-1018 -4725)">
        <rect id="Rechteck_425-24" data-name="Rechteck 425" width="10" height="3" rx="1" transform="translate(1144 4725)" fill="#fff"/>
      </g>
    </g>
    <g id="Wiederholungsraster_56" data-name="Wiederholungsraster 56" transform="translate(1393 4743)" clip-path="url(#clip-path)">
      <g transform="translate(-1144 -4725)">
        <rect id="Rechteck_425-25" data-name="Rechteck 425" width="10" height="3" rx="1" transform="translate(1144 4725)" fill="#fff"/>
      </g>
      <g transform="translate(-1126 -4725)">
        <rect id="Rechteck_425-26" data-name="Rechteck 425" width="10" height="3" rx="1" transform="translate(1144 4725)" fill="#fff"/>
      </g>
      <g transform="translate(-1108 -4725)">
        <rect id="Rechteck_425-27" data-name="Rechteck 425" width="10" height="3" rx="1" transform="translate(1144 4725)" fill="#fff"/>
      </g>
      <g transform="translate(-1090 -4725)">
        <rect id="Rechteck_425-28" data-name="Rechteck 425" width="10" height="3" rx="1" transform="translate(1144 4725)" fill="#fff"/>
      </g>
      <g transform="translate(-1072 -4725)">
        <rect id="Rechteck_425-29" data-name="Rechteck 425" width="10" height="3" rx="1" transform="translate(1144 4725)" fill="#fff"/>
      </g>
      <g transform="translate(-1054 -4725)">
        <rect id="Rechteck_425-30" data-name="Rechteck 425" width="10" height="3" rx="1" transform="translate(1144 4725)" fill="#fff"/>
      </g>
      <g transform="translate(-1036 -4725)">
        <rect id="Rechteck_425-31" data-name="Rechteck 425" width="10" height="3" rx="1" transform="translate(1144 4725)" fill="#fff"/>
      </g>
      <g transform="translate(-1018 -4725)">
        <rect id="Rechteck_425-32" data-name="Rechteck 425" width="10" height="3" rx="1" transform="translate(1144 4725)" fill="#fff"/>
      </g>
    </g>
    <g id="Wiederholungsraster_58" data-name="Wiederholungsraster 58" transform="translate(1226 4743)" clip-path="url(#clip-path)">
      <g transform="translate(-1144 -4725)">
        <rect id="Rechteck_425-33" data-name="Rechteck 425" width="10" height="3" rx="1" transform="translate(1144 4725)" fill="#fff"/>
      </g>
      <g transform="translate(-1126 -4725)">
        <rect id="Rechteck_425-34" data-name="Rechteck 425" width="10" height="3" rx="1" transform="translate(1144 4725)" fill="#fff"/>
      </g>
      <g transform="translate(-1108 -4725)">
        <rect id="Rechteck_425-35" data-name="Rechteck 425" width="10" height="3" rx="1" transform="translate(1144 4725)" fill="#fff"/>
      </g>
      <g transform="translate(-1090 -4725)">
        <rect id="Rechteck_425-36" data-name="Rechteck 425" width="10" height="3" rx="1" transform="translate(1144 4725)" fill="#fff"/>
      </g>
      <g transform="translate(-1072 -4725)">
        <rect id="Rechteck_425-37" data-name="Rechteck 425" width="10" height="3" rx="1" transform="translate(1144 4725)" fill="#fff"/>
      </g>
      <g transform="translate(-1054 -4725)">
        <rect id="Rechteck_425-38" data-name="Rechteck 425" width="10" height="3" rx="1" transform="translate(1144 4725)" fill="#fff"/>
      </g>
      <g transform="translate(-1036 -4725)">
        <rect id="Rechteck_425-39" data-name="Rechteck 425" width="10" height="3" rx="1" transform="translate(1144 4725)" fill="#fff"/>
      </g>
      <g transform="translate(-1018 -4725)">
        <rect id="Rechteck_425-40" data-name="Rechteck 425" width="10" height="3" rx="1" transform="translate(1144 4725)" fill="#fff"/>
      </g>
    </g>
    <g id="Wiederholungsraster_62" data-name="Wiederholungsraster 62" transform="translate(1059 4743)" clip-path="url(#clip-path)">
      <g transform="translate(-1144 -4725)">
        <rect id="Rechteck_425-41" data-name="Rechteck 425" width="10" height="3" rx="1" transform="translate(1144 4725)" fill="#fff"/>
      </g>
      <g transform="translate(-1126 -4725)">
        <rect id="Rechteck_425-42" data-name="Rechteck 425" width="10" height="3" rx="1" transform="translate(1144 4725)" fill="#fff"/>
      </g>
      <g transform="translate(-1108 -4725)">
        <rect id="Rechteck_425-43" data-name="Rechteck 425" width="10" height="3" rx="1" transform="translate(1144 4725)" fill="#fff"/>
      </g>
      <g transform="translate(-1090 -4725)">
        <rect id="Rechteck_425-44" data-name="Rechteck 425" width="10" height="3" rx="1" transform="translate(1144 4725)" fill="#fff"/>
      </g>
      <g transform="translate(-1072 -4725)">
        <rect id="Rechteck_425-45" data-name="Rechteck 425" width="10" height="3" rx="1" transform="translate(1144 4725)" fill="#fff"/>
      </g>
      <g transform="translate(-1054 -4725)">
        <rect id="Rechteck_425-46" data-name="Rechteck 425" width="10" height="3" rx="1" transform="translate(1144 4725)" fill="#fff"/>
      </g>
      <g transform="translate(-1036 -4725)">
        <rect id="Rechteck_425-47" data-name="Rechteck 425" width="10" height="3" rx="1" transform="translate(1144 4725)" fill="#fff"/>
      </g>
      <g transform="translate(-1018 -4725)">
        <rect id="Rechteck_425-48" data-name="Rechteck 425" width="10" height="3" rx="1" transform="translate(1144 4725)" fill="#fff"/>
      </g>
    </g>
    <g id="Wiederholungsraster_65" data-name="Wiederholungsraster 65" transform="translate(1059 4729)" clip-path="url(#clip-path-7)">
      <g id="Gruppe_181" data-name="Gruppe 181" transform="translate(-1055 -4729)">
        <rect id="Rechteck_421" data-name="Rechteck 421" width="4" height="4" transform="translate(1061 4729)" fill="#d31ea2"/>
        <circle id="Ellipse_114" data-name="Ellipse 114" cx="1" cy="1" r="1" transform="translate(1062 4730)" fill="#fff"/>
        <rect id="Rechteck_421-2" data-name="Rechteck 421" width="4" height="4" transform="translate(1055 4729)" fill="#d31ea2"/>
        <circle id="Ellipse_113" data-name="Ellipse 113" cx="1" cy="1" r="1" transform="translate(1056 4730)" fill="#fff"/>
      </g>
      <g id="Gruppe_181-2" data-name="Gruppe 181" transform="translate(-1037 -4729)">
        <rect id="Rechteck_421-3" data-name="Rechteck 421" width="4" height="4" transform="translate(1061 4729)" fill="#d31ea2"/>
        <circle id="Ellipse_114-2" data-name="Ellipse 114" cx="1" cy="1" r="1" transform="translate(1062 4730)" fill="#fff"/>
        <rect id="Rechteck_421-4" data-name="Rechteck 421" width="4" height="4" transform="translate(1055 4729)" fill="#d31ea2"/>
        <circle id="Ellipse_113-2" data-name="Ellipse 113" cx="1" cy="1" r="1" transform="translate(1056 4730)" fill="#fff"/>
      </g>
      <g id="Gruppe_181-3" data-name="Gruppe 181" transform="translate(-1019 -4729)">
        <rect id="Rechteck_421-5" data-name="Rechteck 421" width="4" height="4" transform="translate(1061 4729)" fill="#d31ea2"/>
        <circle id="Ellipse_114-3" data-name="Ellipse 114" cx="1" cy="1" r="1" transform="translate(1062 4730)" fill="#fff"/>
        <rect id="Rechteck_421-6" data-name="Rechteck 421" width="4" height="4" transform="translate(1055 4729)" fill="#d31ea2"/>
        <circle id="Ellipse_113-3" data-name="Ellipse 113" cx="1" cy="1" r="1" transform="translate(1056 4730)" fill="#fff"/>
      </g>
      <g id="Gruppe_181-4" data-name="Gruppe 181" transform="translate(-1001 -4729)">
        <rect id="Rechteck_421-7" data-name="Rechteck 421" width="4" height="4" transform="translate(1061 4729)" fill="#d31ea2"/>
        <circle id="Ellipse_114-4" data-name="Ellipse 114" cx="1" cy="1" r="1" transform="translate(1062 4730)" fill="#fff"/>
        <rect id="Rechteck_421-8" data-name="Rechteck 421" width="4" height="4" transform="translate(1055 4729)" fill="#d31ea2"/>
        <circle id="Ellipse_113-4" data-name="Ellipse 113" cx="1" cy="1" r="1" transform="translate(1056 4730)" fill="#fff"/>
      </g>
      <g id="Gruppe_181-5" data-name="Gruppe 181" transform="translate(-983 -4729)">
        <rect id="Rechteck_421-9" data-name="Rechteck 421" width="4" height="4" transform="translate(1061 4729)" fill="#d31ea2"/>
        <circle id="Ellipse_114-5" data-name="Ellipse 114" cx="1" cy="1" r="1" transform="translate(1062 4730)" fill="#fff"/>
        <rect id="Rechteck_421-10" data-name="Rechteck 421" width="4" height="4" transform="translate(1055 4729)" fill="#d31ea2"/>
        <circle id="Ellipse_113-5" data-name="Ellipse 113" cx="1" cy="1" r="1" transform="translate(1056 4730)" fill="#fff"/>
      </g>
      <g id="Gruppe_181-6" data-name="Gruppe 181" transform="translate(-965 -4729)">
        <rect id="Rechteck_421-11" data-name="Rechteck 421" width="4" height="4" transform="translate(1061 4729)" fill="#d31ea2"/>
        <circle id="Ellipse_114-6" data-name="Ellipse 114" cx="1" cy="1" r="1" transform="translate(1062 4730)" fill="#fff"/>
        <rect id="Rechteck_421-12" data-name="Rechteck 421" width="4" height="4" transform="translate(1055 4729)" fill="#d31ea2"/>
        <circle id="Ellipse_113-6" data-name="Ellipse 113" cx="1" cy="1" r="1" transform="translate(1056 4730)" fill="#fff"/>
      </g>
      <g id="Gruppe_181-7" data-name="Gruppe 181" transform="translate(-947 -4729)">
        <rect id="Rechteck_421-13" data-name="Rechteck 421" width="4" height="4" transform="translate(1061 4729)" fill="#d31ea2"/>
        <circle id="Ellipse_114-7" data-name="Ellipse 114" cx="1" cy="1" r="1" transform="translate(1062 4730)" fill="#fff"/>
        <rect id="Rechteck_421-14" data-name="Rechteck 421" width="4" height="4" transform="translate(1055 4729)" fill="#d31ea2"/>
        <circle id="Ellipse_113-7" data-name="Ellipse 113" cx="1" cy="1" r="1" transform="translate(1056 4730)" fill="#fff"/>
      </g>
      <g id="Gruppe_181-8" data-name="Gruppe 181" transform="translate(-929 -4729)">
        <rect id="Rechteck_421-15" data-name="Rechteck 421" width="4" height="4" transform="translate(1061 4729)" fill="#d31ea2"/>
        <circle id="Ellipse_114-8" data-name="Ellipse 114" cx="1" cy="1" r="1" transform="translate(1062 4730)" fill="#fff"/>
        <rect id="Rechteck_421-16" data-name="Rechteck 421" width="4" height="4" transform="translate(1055 4729)" fill="#d31ea2"/>
        <circle id="Ellipse_113-8" data-name="Ellipse 113" cx="1" cy="1" r="1" transform="translate(1056 4730)" fill="#fff"/>
      </g>
      <g id="Gruppe_181-9" data-name="Gruppe 181" transform="translate(-1055 -4709)">
        <rect id="Rechteck_421-17" data-name="Rechteck 421" width="4" height="4" transform="translate(1061 4729)" fill="#d31ea2"/>
        <circle id="Ellipse_114-9" data-name="Ellipse 114" cx="1" cy="1" r="1" transform="translate(1062 4730)" fill="#fff"/>
        <rect id="Rechteck_421-18" data-name="Rechteck 421" width="4" height="4" transform="translate(1055 4729)" fill="#d31ea2"/>
        <circle id="Ellipse_113-9" data-name="Ellipse 113" cx="1" cy="1" r="1" transform="translate(1056 4730)" fill="#fff"/>
      </g>
      <g id="Gruppe_181-10" data-name="Gruppe 181" transform="translate(-1037 -4709)">
        <rect id="Rechteck_421-19" data-name="Rechteck 421" width="4" height="4" transform="translate(1061 4729)" fill="#d31ea2"/>
        <circle id="Ellipse_114-10" data-name="Ellipse 114" cx="1" cy="1" r="1" transform="translate(1062 4730)" fill="#fff"/>
        <rect id="Rechteck_421-20" data-name="Rechteck 421" width="4" height="4" transform="translate(1055 4729)" fill="#d31ea2"/>
        <circle id="Ellipse_113-10" data-name="Ellipse 113" cx="1" cy="1" r="1" transform="translate(1056 4730)" fill="#fff"/>
      </g>
      <g id="Gruppe_181-11" data-name="Gruppe 181" transform="translate(-1019 -4709)">
        <rect id="Rechteck_421-21" data-name="Rechteck 421" width="4" height="4" transform="translate(1061 4729)" fill="#d31ea2"/>
        <circle id="Ellipse_114-11" data-name="Ellipse 114" cx="1" cy="1" r="1" transform="translate(1062 4730)" fill="#fff"/>
        <rect id="Rechteck_421-22" data-name="Rechteck 421" width="4" height="4" transform="translate(1055 4729)" fill="#d31ea2"/>
        <circle id="Ellipse_113-11" data-name="Ellipse 113" cx="1" cy="1" r="1" transform="translate(1056 4730)" fill="#fff"/>
      </g>
      <g id="Gruppe_181-12" data-name="Gruppe 181" transform="translate(-1001 -4709)">
        <rect id="Rechteck_421-23" data-name="Rechteck 421" width="4" height="4" transform="translate(1061 4729)" fill="#d31ea2"/>
        <circle id="Ellipse_114-12" data-name="Ellipse 114" cx="1" cy="1" r="1" transform="translate(1062 4730)" fill="#fff"/>
        <rect id="Rechteck_421-24" data-name="Rechteck 421" width="4" height="4" transform="translate(1055 4729)" fill="#d31ea2"/>
        <circle id="Ellipse_113-12" data-name="Ellipse 113" cx="1" cy="1" r="1" transform="translate(1056 4730)" fill="#fff"/>
      </g>
      <g id="Gruppe_181-13" data-name="Gruppe 181" transform="translate(-983 -4709)">
        <rect id="Rechteck_421-25" data-name="Rechteck 421" width="4" height="4" transform="translate(1061 4729)" fill="#d31ea2"/>
        <circle id="Ellipse_114-13" data-name="Ellipse 114" cx="1" cy="1" r="1" transform="translate(1062 4730)" fill="#fff"/>
        <rect id="Rechteck_421-26" data-name="Rechteck 421" width="4" height="4" transform="translate(1055 4729)" fill="#d31ea2"/>
        <circle id="Ellipse_113-13" data-name="Ellipse 113" cx="1" cy="1" r="1" transform="translate(1056 4730)" fill="#fff"/>
      </g>
      <g id="Gruppe_181-14" data-name="Gruppe 181" transform="translate(-965 -4709)">
        <rect id="Rechteck_421-27" data-name="Rechteck 421" width="4" height="4" transform="translate(1061 4729)" fill="#d31ea2"/>
        <circle id="Ellipse_114-14" data-name="Ellipse 114" cx="1" cy="1" r="1" transform="translate(1062 4730)" fill="#fff"/>
        <rect id="Rechteck_421-28" data-name="Rechteck 421" width="4" height="4" transform="translate(1055 4729)" fill="#d31ea2"/>
        <circle id="Ellipse_113-14" data-name="Ellipse 113" cx="1" cy="1" r="1" transform="translate(1056 4730)" fill="#fff"/>
      </g>
      <g id="Gruppe_181-15" data-name="Gruppe 181" transform="translate(-947 -4709)">
        <rect id="Rechteck_421-29" data-name="Rechteck 421" width="4" height="4" transform="translate(1061 4729)" fill="#d31ea2"/>
        <circle id="Ellipse_114-15" data-name="Ellipse 114" cx="1" cy="1" r="1" transform="translate(1062 4730)" fill="#fff"/>
        <rect id="Rechteck_421-30" data-name="Rechteck 421" width="4" height="4" transform="translate(1055 4729)" fill="#d31ea2"/>
        <circle id="Ellipse_113-15" data-name="Ellipse 113" cx="1" cy="1" r="1" transform="translate(1056 4730)" fill="#fff"/>
      </g>
      <g id="Gruppe_181-16" data-name="Gruppe 181" transform="translate(-929 -4709)">
        <rect id="Rechteck_421-31" data-name="Rechteck 421" width="4" height="4" transform="translate(1061 4729)" fill="#d31ea2"/>
        <circle id="Ellipse_114-16" data-name="Ellipse 114" cx="1" cy="1" r="1" transform="translate(1062 4730)" fill="#fff"/>
        <rect id="Rechteck_421-32" data-name="Rechteck 421" width="4" height="4" transform="translate(1055 4729)" fill="#d31ea2"/>
        <circle id="Ellipse_113-16" data-name="Ellipse 113" cx="1" cy="1" r="1" transform="translate(1056 4730)" fill="#fff"/>
      </g>
    </g>
    <g id="Wiederholungsraster_67" data-name="Wiederholungsraster 67" transform="translate(1226 4729)" clip-path="url(#clip-path-7)">
      <g id="Gruppe_181-17" data-name="Gruppe 181" transform="translate(-1055 -4729)">
        <rect id="Rechteck_421-33" data-name="Rechteck 421" width="4" height="4" transform="translate(1061 4729)" fill="#d31ea2"/>
        <circle id="Ellipse_114-17" data-name="Ellipse 114" cx="1" cy="1" r="1" transform="translate(1062 4730)" fill="#fff"/>
        <rect id="Rechteck_421-34" data-name="Rechteck 421" width="4" height="4" transform="translate(1055 4729)" fill="#d31ea2"/>
        <circle id="Ellipse_113-17" data-name="Ellipse 113" cx="1" cy="1" r="1" transform="translate(1056 4730)" fill="#fff"/>
      </g>
      <g id="Gruppe_181-18" data-name="Gruppe 181" transform="translate(-1037 -4729)">
        <rect id="Rechteck_421-35" data-name="Rechteck 421" width="4" height="4" transform="translate(1061 4729)" fill="#d31ea2"/>
        <circle id="Ellipse_114-18" data-name="Ellipse 114" cx="1" cy="1" r="1" transform="translate(1062 4730)" fill="#fff"/>
        <rect id="Rechteck_421-36" data-name="Rechteck 421" width="4" height="4" transform="translate(1055 4729)" fill="#d31ea2"/>
        <circle id="Ellipse_113-18" data-name="Ellipse 113" cx="1" cy="1" r="1" transform="translate(1056 4730)" fill="#fff"/>
      </g>
      <g id="Gruppe_181-19" data-name="Gruppe 181" transform="translate(-1019 -4729)">
        <rect id="Rechteck_421-37" data-name="Rechteck 421" width="4" height="4" transform="translate(1061 4729)" fill="#d31ea2"/>
        <circle id="Ellipse_114-19" data-name="Ellipse 114" cx="1" cy="1" r="1" transform="translate(1062 4730)" fill="#fff"/>
        <rect id="Rechteck_421-38" data-name="Rechteck 421" width="4" height="4" transform="translate(1055 4729)" fill="#d31ea2"/>
        <circle id="Ellipse_113-19" data-name="Ellipse 113" cx="1" cy="1" r="1" transform="translate(1056 4730)" fill="#fff"/>
      </g>
      <g id="Gruppe_181-20" data-name="Gruppe 181" transform="translate(-1001 -4729)">
        <rect id="Rechteck_421-39" data-name="Rechteck 421" width="4" height="4" transform="translate(1061 4729)" fill="#d31ea2"/>
        <circle id="Ellipse_114-20" data-name="Ellipse 114" cx="1" cy="1" r="1" transform="translate(1062 4730)" fill="#fff"/>
        <rect id="Rechteck_421-40" data-name="Rechteck 421" width="4" height="4" transform="translate(1055 4729)" fill="#d31ea2"/>
        <circle id="Ellipse_113-20" data-name="Ellipse 113" cx="1" cy="1" r="1" transform="translate(1056 4730)" fill="#fff"/>
      </g>
      <g id="Gruppe_181-21" data-name="Gruppe 181" transform="translate(-983 -4729)">
        <rect id="Rechteck_421-41" data-name="Rechteck 421" width="4" height="4" transform="translate(1061 4729)" fill="#d31ea2"/>
        <circle id="Ellipse_114-21" data-name="Ellipse 114" cx="1" cy="1" r="1" transform="translate(1062 4730)" fill="#fff"/>
        <rect id="Rechteck_421-42" data-name="Rechteck 421" width="4" height="4" transform="translate(1055 4729)" fill="#d31ea2"/>
        <circle id="Ellipse_113-21" data-name="Ellipse 113" cx="1" cy="1" r="1" transform="translate(1056 4730)" fill="#fff"/>
      </g>
      <g id="Gruppe_181-22" data-name="Gruppe 181" transform="translate(-965 -4729)">
        <rect id="Rechteck_421-43" data-name="Rechteck 421" width="4" height="4" transform="translate(1061 4729)" fill="#d31ea2"/>
        <circle id="Ellipse_114-22" data-name="Ellipse 114" cx="1" cy="1" r="1" transform="translate(1062 4730)" fill="#fff"/>
        <rect id="Rechteck_421-44" data-name="Rechteck 421" width="4" height="4" transform="translate(1055 4729)" fill="#d31ea2"/>
        <circle id="Ellipse_113-22" data-name="Ellipse 113" cx="1" cy="1" r="1" transform="translate(1056 4730)" fill="#fff"/>
      </g>
      <g id="Gruppe_181-23" data-name="Gruppe 181" transform="translate(-947 -4729)">
        <rect id="Rechteck_421-45" data-name="Rechteck 421" width="4" height="4" transform="translate(1061 4729)" fill="#d31ea2"/>
        <circle id="Ellipse_114-23" data-name="Ellipse 114" cx="1" cy="1" r="1" transform="translate(1062 4730)" fill="#fff"/>
        <rect id="Rechteck_421-46" data-name="Rechteck 421" width="4" height="4" transform="translate(1055 4729)" fill="#d31ea2"/>
        <circle id="Ellipse_113-23" data-name="Ellipse 113" cx="1" cy="1" r="1" transform="translate(1056 4730)" fill="#fff"/>
      </g>
      <g id="Gruppe_181-24" data-name="Gruppe 181" transform="translate(-929 -4729)">
        <rect id="Rechteck_421-47" data-name="Rechteck 421" width="4" height="4" transform="translate(1061 4729)" fill="#d31ea2"/>
        <circle id="Ellipse_114-24" data-name="Ellipse 114" cx="1" cy="1" r="1" transform="translate(1062 4730)" fill="#fff"/>
        <rect id="Rechteck_421-48" data-name="Rechteck 421" width="4" height="4" transform="translate(1055 4729)" fill="#d31ea2"/>
        <circle id="Ellipse_113-24" data-name="Ellipse 113" cx="1" cy="1" r="1" transform="translate(1056 4730)" fill="#fff"/>
      </g>
      <g id="Gruppe_181-25" data-name="Gruppe 181" transform="translate(-1055 -4709)">
        <rect id="Rechteck_421-49" data-name="Rechteck 421" width="4" height="4" transform="translate(1061 4729)" fill="#d31ea2"/>
        <circle id="Ellipse_114-25" data-name="Ellipse 114" cx="1" cy="1" r="1" transform="translate(1062 4730)" fill="#fff"/>
        <rect id="Rechteck_421-50" data-name="Rechteck 421" width="4" height="4" transform="translate(1055 4729)" fill="#d31ea2"/>
        <circle id="Ellipse_113-25" data-name="Ellipse 113" cx="1" cy="1" r="1" transform="translate(1056 4730)" fill="#fff"/>
      </g>
      <g id="Gruppe_181-26" data-name="Gruppe 181" transform="translate(-1037 -4709)">
        <rect id="Rechteck_421-51" data-name="Rechteck 421" width="4" height="4" transform="translate(1061 4729)" fill="#d31ea2"/>
        <circle id="Ellipse_114-26" data-name="Ellipse 114" cx="1" cy="1" r="1" transform="translate(1062 4730)" fill="#fff"/>
        <rect id="Rechteck_421-52" data-name="Rechteck 421" width="4" height="4" transform="translate(1055 4729)" fill="#d31ea2"/>
        <circle id="Ellipse_113-26" data-name="Ellipse 113" cx="1" cy="1" r="1" transform="translate(1056 4730)" fill="#fff"/>
      </g>
      <g id="Gruppe_181-27" data-name="Gruppe 181" transform="translate(-1019 -4709)">
        <rect id="Rechteck_421-53" data-name="Rechteck 421" width="4" height="4" transform="translate(1061 4729)" fill="#d31ea2"/>
        <circle id="Ellipse_114-27" data-name="Ellipse 114" cx="1" cy="1" r="1" transform="translate(1062 4730)" fill="#fff"/>
        <rect id="Rechteck_421-54" data-name="Rechteck 421" width="4" height="4" transform="translate(1055 4729)" fill="#d31ea2"/>
        <circle id="Ellipse_113-27" data-name="Ellipse 113" cx="1" cy="1" r="1" transform="translate(1056 4730)" fill="#fff"/>
      </g>
      <g id="Gruppe_181-28" data-name="Gruppe 181" transform="translate(-1001 -4709)">
        <rect id="Rechteck_421-55" data-name="Rechteck 421" width="4" height="4" transform="translate(1061 4729)" fill="#d31ea2"/>
        <circle id="Ellipse_114-28" data-name="Ellipse 114" cx="1" cy="1" r="1" transform="translate(1062 4730)" fill="#fff"/>
        <rect id="Rechteck_421-56" data-name="Rechteck 421" width="4" height="4" transform="translate(1055 4729)" fill="#d31ea2"/>
        <circle id="Ellipse_113-28" data-name="Ellipse 113" cx="1" cy="1" r="1" transform="translate(1056 4730)" fill="#fff"/>
      </g>
      <g id="Gruppe_181-29" data-name="Gruppe 181" transform="translate(-983 -4709)">
        <rect id="Rechteck_421-57" data-name="Rechteck 421" width="4" height="4" transform="translate(1061 4729)" fill="#d31ea2"/>
        <circle id="Ellipse_114-29" data-name="Ellipse 114" cx="1" cy="1" r="1" transform="translate(1062 4730)" fill="#fff"/>
        <rect id="Rechteck_421-58" data-name="Rechteck 421" width="4" height="4" transform="translate(1055 4729)" fill="#d31ea2"/>
        <circle id="Ellipse_113-29" data-name="Ellipse 113" cx="1" cy="1" r="1" transform="translate(1056 4730)" fill="#fff"/>
      </g>
      <g id="Gruppe_181-30" data-name="Gruppe 181" transform="translate(-965 -4709)">
        <rect id="Rechteck_421-59" data-name="Rechteck 421" width="4" height="4" transform="translate(1061 4729)" fill="#d31ea2"/>
        <circle id="Ellipse_114-30" data-name="Ellipse 114" cx="1" cy="1" r="1" transform="translate(1062 4730)" fill="#fff"/>
        <rect id="Rechteck_421-60" data-name="Rechteck 421" width="4" height="4" transform="translate(1055 4729)" fill="#d31ea2"/>
        <circle id="Ellipse_113-30" data-name="Ellipse 113" cx="1" cy="1" r="1" transform="translate(1056 4730)" fill="#fff"/>
      </g>
      <g id="Gruppe_181-31" data-name="Gruppe 181" transform="translate(-947 -4709)">
        <rect id="Rechteck_421-61" data-name="Rechteck 421" width="4" height="4" transform="translate(1061 4729)" fill="#d31ea2"/>
        <circle id="Ellipse_114-31" data-name="Ellipse 114" cx="1" cy="1" r="1" transform="translate(1062 4730)" fill="#fff"/>
        <rect id="Rechteck_421-62" data-name="Rechteck 421" width="4" height="4" transform="translate(1055 4729)" fill="#d31ea2"/>
        <circle id="Ellipse_113-31" data-name="Ellipse 113" cx="1" cy="1" r="1" transform="translate(1056 4730)" fill="#fff"/>
      </g>
      <g id="Gruppe_181-32" data-name="Gruppe 181" transform="translate(-929 -4709)">
        <rect id="Rechteck_421-63" data-name="Rechteck 421" width="4" height="4" transform="translate(1061 4729)" fill="#d31ea2"/>
        <circle id="Ellipse_114-32" data-name="Ellipse 114" cx="1" cy="1" r="1" transform="translate(1062 4730)" fill="#fff"/>
        <rect id="Rechteck_421-64" data-name="Rechteck 421" width="4" height="4" transform="translate(1055 4729)" fill="#d31ea2"/>
        <circle id="Ellipse_113-32" data-name="Ellipse 113" cx="1" cy="1" r="1" transform="translate(1056 4730)" fill="#fff"/>
      </g>
    </g>
    <g id="Wiederholungsraster_68" data-name="Wiederholungsraster 68" transform="translate(1393 4729)" clip-path="url(#clip-path-7)">
      <g id="Gruppe_181-33" data-name="Gruppe 181" transform="translate(-1055 -4729)">
        <rect id="Rechteck_421-65" data-name="Rechteck 421" width="4" height="4" transform="translate(1061 4729)" fill="#d31ea2"/>
        <circle id="Ellipse_114-33" data-name="Ellipse 114" cx="1" cy="1" r="1" transform="translate(1062 4730)" fill="#fff"/>
        <rect id="Rechteck_421-66" data-name="Rechteck 421" width="4" height="4" transform="translate(1055 4729)" fill="#d31ea2"/>
        <circle id="Ellipse_113-33" data-name="Ellipse 113" cx="1" cy="1" r="1" transform="translate(1056 4730)" fill="#fff"/>
      </g>
      <g id="Gruppe_181-34" data-name="Gruppe 181" transform="translate(-1037 -4729)">
        <rect id="Rechteck_421-67" data-name="Rechteck 421" width="4" height="4" transform="translate(1061 4729)" fill="#d31ea2"/>
        <circle id="Ellipse_114-34" data-name="Ellipse 114" cx="1" cy="1" r="1" transform="translate(1062 4730)" fill="#fff"/>
        <rect id="Rechteck_421-68" data-name="Rechteck 421" width="4" height="4" transform="translate(1055 4729)" fill="#d31ea2"/>
        <circle id="Ellipse_113-34" data-name="Ellipse 113" cx="1" cy="1" r="1" transform="translate(1056 4730)" fill="#fff"/>
      </g>
      <g id="Gruppe_181-35" data-name="Gruppe 181" transform="translate(-1019 -4729)">
        <rect id="Rechteck_421-69" data-name="Rechteck 421" width="4" height="4" transform="translate(1061 4729)" fill="#d31ea2"/>
        <circle id="Ellipse_114-35" data-name="Ellipse 114" cx="1" cy="1" r="1" transform="translate(1062 4730)" fill="#fff"/>
        <rect id="Rechteck_421-70" data-name="Rechteck 421" width="4" height="4" transform="translate(1055 4729)" fill="#d31ea2"/>
        <circle id="Ellipse_113-35" data-name="Ellipse 113" cx="1" cy="1" r="1" transform="translate(1056 4730)" fill="#fff"/>
      </g>
      <g id="Gruppe_181-36" data-name="Gruppe 181" transform="translate(-1001 -4729)">
        <rect id="Rechteck_421-71" data-name="Rechteck 421" width="4" height="4" transform="translate(1061 4729)" fill="#d31ea2"/>
        <circle id="Ellipse_114-36" data-name="Ellipse 114" cx="1" cy="1" r="1" transform="translate(1062 4730)" fill="#fff"/>
        <rect id="Rechteck_421-72" data-name="Rechteck 421" width="4" height="4" transform="translate(1055 4729)" fill="#d31ea2"/>
        <circle id="Ellipse_113-36" data-name="Ellipse 113" cx="1" cy="1" r="1" transform="translate(1056 4730)" fill="#fff"/>
      </g>
      <g id="Gruppe_181-37" data-name="Gruppe 181" transform="translate(-983 -4729)">
        <rect id="Rechteck_421-73" data-name="Rechteck 421" width="4" height="4" transform="translate(1061 4729)" fill="#d31ea2"/>
        <circle id="Ellipse_114-37" data-name="Ellipse 114" cx="1" cy="1" r="1" transform="translate(1062 4730)" fill="#fff"/>
        <rect id="Rechteck_421-74" data-name="Rechteck 421" width="4" height="4" transform="translate(1055 4729)" fill="#d31ea2"/>
        <circle id="Ellipse_113-37" data-name="Ellipse 113" cx="1" cy="1" r="1" transform="translate(1056 4730)" fill="#fff"/>
      </g>
      <g id="Gruppe_181-38" data-name="Gruppe 181" transform="translate(-965 -4729)">
        <rect id="Rechteck_421-75" data-name="Rechteck 421" width="4" height="4" transform="translate(1061 4729)" fill="#d31ea2"/>
        <circle id="Ellipse_114-38" data-name="Ellipse 114" cx="1" cy="1" r="1" transform="translate(1062 4730)" fill="#fff"/>
        <rect id="Rechteck_421-76" data-name="Rechteck 421" width="4" height="4" transform="translate(1055 4729)" fill="#d31ea2"/>
        <circle id="Ellipse_113-38" data-name="Ellipse 113" cx="1" cy="1" r="1" transform="translate(1056 4730)" fill="#fff"/>
      </g>
      <g id="Gruppe_181-39" data-name="Gruppe 181" transform="translate(-947 -4729)">
        <rect id="Rechteck_421-77" data-name="Rechteck 421" width="4" height="4" transform="translate(1061 4729)" fill="#d31ea2"/>
        <circle id="Ellipse_114-39" data-name="Ellipse 114" cx="1" cy="1" r="1" transform="translate(1062 4730)" fill="#fff"/>
        <rect id="Rechteck_421-78" data-name="Rechteck 421" width="4" height="4" transform="translate(1055 4729)" fill="#d31ea2"/>
        <circle id="Ellipse_113-39" data-name="Ellipse 113" cx="1" cy="1" r="1" transform="translate(1056 4730)" fill="#fff"/>
      </g>
      <g id="Gruppe_181-40" data-name="Gruppe 181" transform="translate(-929 -4729)">
        <rect id="Rechteck_421-79" data-name="Rechteck 421" width="4" height="4" transform="translate(1061 4729)" fill="#d31ea2"/>
        <circle id="Ellipse_114-40" data-name="Ellipse 114" cx="1" cy="1" r="1" transform="translate(1062 4730)" fill="#fff"/>
        <rect id="Rechteck_421-80" data-name="Rechteck 421" width="4" height="4" transform="translate(1055 4729)" fill="#d31ea2"/>
        <circle id="Ellipse_113-40" data-name="Ellipse 113" cx="1" cy="1" r="1" transform="translate(1056 4730)" fill="#fff"/>
      </g>
      <g id="Gruppe_181-41" data-name="Gruppe 181" transform="translate(-1055 -4709)">
        <rect id="Rechteck_421-81" data-name="Rechteck 421" width="4" height="4" transform="translate(1061 4729)" fill="#d31ea2"/>
        <circle id="Ellipse_114-41" data-name="Ellipse 114" cx="1" cy="1" r="1" transform="translate(1062 4730)" fill="#fff"/>
        <rect id="Rechteck_421-82" data-name="Rechteck 421" width="4" height="4" transform="translate(1055 4729)" fill="#d31ea2"/>
        <circle id="Ellipse_113-41" data-name="Ellipse 113" cx="1" cy="1" r="1" transform="translate(1056 4730)" fill="#fff"/>
      </g>
      <g id="Gruppe_181-42" data-name="Gruppe 181" transform="translate(-1037 -4709)">
        <rect id="Rechteck_421-83" data-name="Rechteck 421" width="4" height="4" transform="translate(1061 4729)" fill="#d31ea2"/>
        <circle id="Ellipse_114-42" data-name="Ellipse 114" cx="1" cy="1" r="1" transform="translate(1062 4730)" fill="#fff"/>
        <rect id="Rechteck_421-84" data-name="Rechteck 421" width="4" height="4" transform="translate(1055 4729)" fill="#d31ea2"/>
        <circle id="Ellipse_113-42" data-name="Ellipse 113" cx="1" cy="1" r="1" transform="translate(1056 4730)" fill="#fff"/>
      </g>
      <g id="Gruppe_181-43" data-name="Gruppe 181" transform="translate(-1019 -4709)">
        <rect id="Rechteck_421-85" data-name="Rechteck 421" width="4" height="4" transform="translate(1061 4729)" fill="#d31ea2"/>
        <circle id="Ellipse_114-43" data-name="Ellipse 114" cx="1" cy="1" r="1" transform="translate(1062 4730)" fill="#fff"/>
        <rect id="Rechteck_421-86" data-name="Rechteck 421" width="4" height="4" transform="translate(1055 4729)" fill="#d31ea2"/>
        <circle id="Ellipse_113-43" data-name="Ellipse 113" cx="1" cy="1" r="1" transform="translate(1056 4730)" fill="#fff"/>
      </g>
      <g id="Gruppe_181-44" data-name="Gruppe 181" transform="translate(-1001 -4709)">
        <rect id="Rechteck_421-87" data-name="Rechteck 421" width="4" height="4" transform="translate(1061 4729)" fill="#d31ea2"/>
        <circle id="Ellipse_114-44" data-name="Ellipse 114" cx="1" cy="1" r="1" transform="translate(1062 4730)" fill="#fff"/>
        <rect id="Rechteck_421-88" data-name="Rechteck 421" width="4" height="4" transform="translate(1055 4729)" fill="#d31ea2"/>
        <circle id="Ellipse_113-44" data-name="Ellipse 113" cx="1" cy="1" r="1" transform="translate(1056 4730)" fill="#fff"/>
      </g>
      <g id="Gruppe_181-45" data-name="Gruppe 181" transform="translate(-983 -4709)">
        <rect id="Rechteck_421-89" data-name="Rechteck 421" width="4" height="4" transform="translate(1061 4729)" fill="#d31ea2"/>
        <circle id="Ellipse_114-45" data-name="Ellipse 114" cx="1" cy="1" r="1" transform="translate(1062 4730)" fill="#fff"/>
        <rect id="Rechteck_421-90" data-name="Rechteck 421" width="4" height="4" transform="translate(1055 4729)" fill="#d31ea2"/>
        <circle id="Ellipse_113-45" data-name="Ellipse 113" cx="1" cy="1" r="1" transform="translate(1056 4730)" fill="#fff"/>
      </g>
      <g id="Gruppe_181-46" data-name="Gruppe 181" transform="translate(-965 -4709)">
        <rect id="Rechteck_421-91" data-name="Rechteck 421" width="4" height="4" transform="translate(1061 4729)" fill="#d31ea2"/>
        <circle id="Ellipse_114-46" data-name="Ellipse 114" cx="1" cy="1" r="1" transform="translate(1062 4730)" fill="#fff"/>
        <rect id="Rechteck_421-92" data-name="Rechteck 421" width="4" height="4" transform="translate(1055 4729)" fill="#d31ea2"/>
        <circle id="Ellipse_113-46" data-name="Ellipse 113" cx="1" cy="1" r="1" transform="translate(1056 4730)" fill="#fff"/>
      </g>
      <g id="Gruppe_181-47" data-name="Gruppe 181" transform="translate(-947 -4709)">
        <rect id="Rechteck_421-93" data-name="Rechteck 421" width="4" height="4" transform="translate(1061 4729)" fill="#d31ea2"/>
        <circle id="Ellipse_114-47" data-name="Ellipse 114" cx="1" cy="1" r="1" transform="translate(1062 4730)" fill="#fff"/>
        <rect id="Rechteck_421-94" data-name="Rechteck 421" width="4" height="4" transform="translate(1055 4729)" fill="#d31ea2"/>
        <circle id="Ellipse_113-47" data-name="Ellipse 113" cx="1" cy="1" r="1" transform="translate(1056 4730)" fill="#fff"/>
      </g>
      <g id="Gruppe_181-48" data-name="Gruppe 181" transform="translate(-929 -4709)">
        <rect id="Rechteck_421-95" data-name="Rechteck 421" width="4" height="4" transform="translate(1061 4729)" fill="#d31ea2"/>
        <circle id="Ellipse_114-48" data-name="Ellipse 114" cx="1" cy="1" r="1" transform="translate(1062 4730)" fill="#fff"/>
        <rect id="Rechteck_421-96" data-name="Rechteck 421" width="4" height="4" transform="translate(1055 4729)" fill="#d31ea2"/>
        <circle id="Ellipse_113-48" data-name="Ellipse 113" cx="1" cy="1" r="1" transform="translate(1056 4730)" fill="#fff"/>
      </g>
    </g>
  </g>
</svg>
