<svg xmlns="http://www.w3.org/2000/svg" xmlns:xlink="http://www.w3.org/1999/xlink" width="520" height="50" viewBox="0 0 520 50">
  <defs>
    <clipPath id="clip-path">
      <rect width="440" height="3" fill="none"/>
    </clipPath>
    <clipPath id="clip-path-2">
      <rect width="53.5" height="2" fill="none"/>
    </clipPath>
    <clipPath id="clip-path-4">
      <rect width="23.477" height="2" fill="none"/>
    </clipPath>
  </defs>
  <g id="Router" transform="translate(-1034 -4713)">
    <g id="Rechteck_344" data-name="Rechteck 344" transform="translate(1044 4713)" fill="#efefef" stroke="#ccc" stroke-width="1">
      <rect width="500" height="50" stroke="none"/>
      <rect x="0.5" y="0.5" width="499" height="49" fill="none"/>
    </g>
    <g id="_1HE" data-name="1HE" transform="translate(3222 -5406)">
      <rect id="Rechteck_356" data-name="Rechteck 356" width="10" height="50" transform="translate(-2188 10119)" fill="#efefef"/>
      <path id="Rechteck_357" data-name="Rechteck 357" d="M0,0H6A0,0,0,0,1,6,0V9a2,2,0,0,1-2,2H0a0,0,0,0,1,0,0V0A0,0,0,0,1,0,0Z" transform="translate(-2188 10119)" fill="#ccc"/>
      <circle id="Ellipse_76" data-name="Ellipse 76" cx="2.5" cy="2.5" r="2.5" transform="translate(-2186 10149)" fill="#ccc"/>
      <circle id="Ellipse_77" data-name="Ellipse 77" cx="2.5" cy="2.5" r="2.5" transform="translate(-2186 10159)" fill="#ccc"/>
    </g>
    <g id="_1HE-2" data-name="1HE" transform="translate(3732 -5406)">
      <rect id="Rechteck_356-2" data-name="Rechteck 356" width="10" height="50" transform="translate(-2188 10119)" fill="#efefef"/>
      <path id="Rechteck_357-2" data-name="Rechteck 357" d="M0,0H6A0,0,0,0,1,6,0V11a0,0,0,0,1,0,0H2A2,2,0,0,1,0,9V0A0,0,0,0,1,0,0Z" transform="translate(-2184 10119)" fill="#ccc"/>
      <circle id="Ellipse_76-2" data-name="Ellipse 76" cx="2.5" cy="2.5" r="2.5" transform="translate(-2186 10149)" fill="#ccc"/>
      <circle id="Ellipse_77-2" data-name="Ellipse 77" cx="2.5" cy="2.5" r="2.5" transform="translate(-2186 10159)" fill="#ccc"/>
    </g>
    <g id="Gruppe_254" data-name="Gruppe 254" transform="translate(5 2)">
      <rect id="Rechteck_358" data-name="Rechteck 358" width="10" height="7" transform="translate(1424 4727)" fill="#999"/>
      <rect id="Rechteck_366" data-name="Rechteck 366" width="4" height="2" transform="translate(1427 4725)" fill="#999"/>
    </g>
    <g id="Gruppe_255" data-name="Gruppe 255" transform="translate(20 2)">
      <rect id="Rechteck_358-2" data-name="Rechteck 358" width="10" height="7" transform="translate(1424 4727)" fill="#999"/>
      <rect id="Rechteck_366-2" data-name="Rechteck 366" width="4" height="2" transform="translate(1427 4725)" fill="#999"/>
    </g>
    <g id="Gruppe_256" data-name="Gruppe 256" transform="translate(35 2)">
      <rect id="Rechteck_358-3" data-name="Rechteck 358" width="10" height="7" transform="translate(1424 4727)" fill="#999"/>
      <rect id="Rechteck_366-3" data-name="Rechteck 366" width="4" height="2" transform="translate(1427 4725)" fill="#999"/>
    </g>
    <g id="Gruppe_257" data-name="Gruppe 257" transform="translate(50 2)">
      <rect id="Rechteck_358-4" data-name="Rechteck 358" width="10" height="7" transform="translate(1424 4727)" fill="#999"/>
      <rect id="Rechteck_366-4" data-name="Rechteck 366" width="4" height="2" transform="translate(1427 4725)" fill="#999"/>
    </g>
    <g id="Gruppe_258" data-name="Gruppe 258" transform="translate(2908 9475) rotate(180)">
      <rect id="Rechteck_358-5" data-name="Rechteck 358" width="10" height="7" transform="translate(1424 4727)" fill="#999"/>
      <rect id="Rechteck_366-5" data-name="Rechteck 366" width="4" height="2" transform="translate(1427 4725)" fill="#999"/>
    </g>
    <g id="Gruppe_259" data-name="Gruppe 259" transform="translate(2893 9475) rotate(180)">
      <rect id="Rechteck_358-6" data-name="Rechteck 358" width="10" height="7" transform="translate(1424 4727)" fill="#999"/>
      <rect id="Rechteck_366-6" data-name="Rechteck 366" width="4" height="2" transform="translate(1427 4725)" fill="#999"/>
    </g>
    <g id="Gruppe_260" data-name="Gruppe 260" transform="translate(2878 9475) rotate(180)">
      <rect id="Rechteck_358-7" data-name="Rechteck 358" width="10" height="7" transform="translate(1424 4727)" fill="#999"/>
      <rect id="Rechteck_366-7" data-name="Rechteck 366" width="4" height="2" transform="translate(1427 4725)" fill="#999"/>
    </g>
    <g id="Gruppe_261" data-name="Gruppe 261" transform="translate(2863 9475) rotate(180)">
      <rect id="Rechteck_358-8" data-name="Rechteck 358" width="10" height="7" transform="translate(1424 4727)" fill="#999"/>
      <rect id="Rechteck_366-8" data-name="Rechteck 366" width="4" height="2" transform="translate(1427 4725)" fill="#999"/>
    </g>
    <g id="Gruppe_262" data-name="Gruppe 262" transform="translate(80 2)">
      <rect id="Rechteck_358-9" data-name="Rechteck 358" width="10" height="7" transform="translate(1424 4727)" fill="#999"/>
      <rect id="Rechteck_366-9" data-name="Rechteck 366" width="4" height="2" transform="translate(1427 4725)" fill="#999"/>
    </g>
    <g id="Gruppe_263" data-name="Gruppe 263" transform="translate(95 2)">
      <rect id="Rechteck_358-10" data-name="Rechteck 358" width="10" height="7" transform="translate(1424 4727)" fill="#999"/>
      <rect id="Rechteck_366-10" data-name="Rechteck 366" width="4" height="2" transform="translate(1427 4725)" fill="#999"/>
    </g>
    <g id="Gruppe_264" data-name="Gruppe 264" transform="translate(2953 9475) rotate(180)">
      <rect id="Rechteck_358-11" data-name="Rechteck 358" width="10" height="7" transform="translate(1424 4727)" fill="#999"/>
      <rect id="Rechteck_366-11" data-name="Rechteck 366" width="4" height="2" transform="translate(1427 4725)" fill="#999"/>
    </g>
    <g id="Gruppe_265" data-name="Gruppe 265" transform="translate(2938 9475) rotate(180)">
      <rect id="Rechteck_358-12" data-name="Rechteck 358" width="10" height="7" transform="translate(1424 4727)" fill="#999"/>
      <rect id="Rechteck_366-12" data-name="Rechteck 366" width="4" height="2" transform="translate(1427 4725)" fill="#999"/>
    </g>
    <g id="Wiederholungsraster_28" data-name="Wiederholungsraster 28" transform="translate(1089 4718)" clip-path="url(#clip-path)">
      <g transform="translate(-1064 -4718)">
        <line id="Linie_55" data-name="Linie 55" x2="81" transform="translate(1065.5 4719.5)" fill="none" stroke="#ccc" stroke-linecap="round" stroke-width="2"/>
      </g>
      <g transform="translate(-975 -4718)">
        <line id="Linie_55-2" data-name="Linie 55" x2="81" transform="translate(1065.5 4719.5)" fill="none" stroke="#ccc" stroke-linecap="round" stroke-width="2"/>
      </g>
      <g transform="translate(-886 -4718)">
        <line id="Linie_55-3" data-name="Linie 55" x2="81" transform="translate(1065.5 4719.5)" fill="none" stroke="#ccc" stroke-linecap="round" stroke-width="2"/>
      </g>
      <g transform="translate(-797 -4718)">
        <line id="Linie_55-4" data-name="Linie 55" x2="81" transform="translate(1065.5 4719.5)" fill="none" stroke="#ccc" stroke-linecap="round" stroke-width="2"/>
      </g>
      <g transform="translate(-708 -4718)">
        <line id="Linie_55-5" data-name="Linie 55" x2="81" transform="translate(1065.5 4719.5)" fill="none" stroke="#ccc" stroke-linecap="round" stroke-width="2"/>
      </g>
    </g>
    <g id="Monitor" transform="translate(8 -2)">
      <rect id="Rechteck_360" data-name="Rechteck 360" width="27" height="27" rx="5" transform="translate(1052 4727)" fill="#10b6ff"/>
      <rect id="Rechteck_361" data-name="Rechteck 361" width="5" height="5" rx="2.5" transform="translate(1067 4732)" fill="#a0f8f2"/>
      <rect id="Rechteck_362" data-name="Rechteck 362" width="3" height="3" rx="1.5" transform="translate(1057 4742)" fill="#a0f8f2"/>
      <rect id="Rechteck_363" data-name="Rechteck 363" width="2" height="2" rx="1" transform="translate(1058 4734)" fill="#a0f8f2"/>
      <rect id="Rechteck_364" data-name="Rechteck 364" width="3" height="3" rx="1.5" transform="translate(1068 4745)" fill="#a0f8f2"/>
      <rect id="Rechteck_365" data-name="Rechteck 365" width="2" height="2" rx="1" transform="translate(1064 4739)" fill="#a0f8f2"/>
    </g>
    <g id="Rechteck_367" data-name="Rechteck 367" transform="translate(1327 4727)" fill="none" stroke="#ccc" stroke-width="1">
      <rect width="82" height="23" stroke="none"/>
      <rect x="0.5" y="0.5" width="81" height="22" fill="none"/>
    </g>
    <g id="Wiederholungsraster_40" data-name="Wiederholungsraster 40" transform="translate(1482.5 4744) rotate(-180)" clip-path="url(#clip-path-2)">
      <g id="Gruppe_272" data-name="Gruppe 272" transform="translate(-1425.5 -4731)">
        <line id="Linie_73" data-name="Linie 73" y1="2" transform="translate(1432 4731)" fill="none" stroke="#fff" stroke-width="1"/>
        <line id="Linie_74" data-name="Linie 74" y1="2" transform="translate(1430 4731)" fill="none" stroke="#fff" stroke-width="1"/>
        <line id="Linie_75" data-name="Linie 75" y1="2" transform="translate(1428 4731)" fill="none" stroke="#fff" stroke-width="1"/>
        <line id="Linie_76" data-name="Linie 76" y1="2" transform="translate(1426 4731)" fill="none" stroke="#fff" stroke-width="1"/>
      </g>
      <g id="Gruppe_272-2" data-name="Gruppe 272" transform="translate(-1410.5 -4731)">
        <line id="Linie_73-2" data-name="Linie 73" y1="2" transform="translate(1432 4731)" fill="none" stroke="#fff" stroke-width="1"/>
        <line id="Linie_74-2" data-name="Linie 74" y1="2" transform="translate(1430 4731)" fill="none" stroke="#fff" stroke-width="1"/>
        <line id="Linie_75-2" data-name="Linie 75" y1="2" transform="translate(1428 4731)" fill="none" stroke="#fff" stroke-width="1"/>
        <line id="Linie_76-2" data-name="Linie 76" y1="2" transform="translate(1426 4731)" fill="none" stroke="#fff" stroke-width="1"/>
      </g>
      <g id="Gruppe_272-3" data-name="Gruppe 272" transform="translate(-1395.5 -4731)">
        <line id="Linie_73-3" data-name="Linie 73" y1="2" transform="translate(1432 4731)" fill="none" stroke="#fff" stroke-width="1"/>
        <line id="Linie_74-3" data-name="Linie 74" y1="2" transform="translate(1430 4731)" fill="none" stroke="#fff" stroke-width="1"/>
        <line id="Linie_75-3" data-name="Linie 75" y1="2" transform="translate(1428 4731)" fill="none" stroke="#fff" stroke-width="1"/>
        <line id="Linie_76-3" data-name="Linie 76" y1="2" transform="translate(1426 4731)" fill="none" stroke="#fff" stroke-width="1"/>
      </g>
      <g id="Gruppe_272-4" data-name="Gruppe 272" transform="translate(-1380.5 -4731)">
        <line id="Linie_73-4" data-name="Linie 73" y1="2" transform="translate(1432 4731)" fill="none" stroke="#fff" stroke-width="1"/>
        <line id="Linie_74-4" data-name="Linie 74" y1="2" transform="translate(1430 4731)" fill="none" stroke="#fff" stroke-width="1"/>
        <line id="Linie_75-4" data-name="Linie 75" y1="2" transform="translate(1428 4731)" fill="none" stroke="#fff" stroke-width="1"/>
        <line id="Linie_76-4" data-name="Linie 76" y1="2" transform="translate(1426 4731)" fill="none" stroke="#fff" stroke-width="1"/>
      </g>
    </g>
    <g id="Wiederholungsraster_41" data-name="Wiederholungsraster 41" transform="translate(1482.5 4735) rotate(-180)" clip-path="url(#clip-path-2)">
      <g id="Gruppe_272-5" data-name="Gruppe 272" transform="translate(-1425.5 -4731)">
        <line id="Linie_73-5" data-name="Linie 73" y1="2" transform="translate(1432 4731)" fill="none" stroke="#fff" stroke-width="1"/>
        <line id="Linie_74-5" data-name="Linie 74" y1="2" transform="translate(1430 4731)" fill="none" stroke="#fff" stroke-width="1"/>
        <line id="Linie_75-5" data-name="Linie 75" y1="2" transform="translate(1428 4731)" fill="none" stroke="#fff" stroke-width="1"/>
        <line id="Linie_76-5" data-name="Linie 76" y1="2" transform="translate(1426 4731)" fill="none" stroke="#fff" stroke-width="1"/>
      </g>
      <g id="Gruppe_272-6" data-name="Gruppe 272" transform="translate(-1410.5 -4731)">
        <line id="Linie_73-6" data-name="Linie 73" y1="2" transform="translate(1432 4731)" fill="none" stroke="#fff" stroke-width="1"/>
        <line id="Linie_74-6" data-name="Linie 74" y1="2" transform="translate(1430 4731)" fill="none" stroke="#fff" stroke-width="1"/>
        <line id="Linie_75-6" data-name="Linie 75" y1="2" transform="translate(1428 4731)" fill="none" stroke="#fff" stroke-width="1"/>
        <line id="Linie_76-6" data-name="Linie 76" y1="2" transform="translate(1426 4731)" fill="none" stroke="#fff" stroke-width="1"/>
      </g>
      <g id="Gruppe_272-7" data-name="Gruppe 272" transform="translate(-1395.5 -4731)">
        <line id="Linie_73-7" data-name="Linie 73" y1="2" transform="translate(1432 4731)" fill="none" stroke="#fff" stroke-width="1"/>
        <line id="Linie_74-7" data-name="Linie 74" y1="2" transform="translate(1430 4731)" fill="none" stroke="#fff" stroke-width="1"/>
        <line id="Linie_75-7" data-name="Linie 75" y1="2" transform="translate(1428 4731)" fill="none" stroke="#fff" stroke-width="1"/>
        <line id="Linie_76-7" data-name="Linie 76" y1="2" transform="translate(1426 4731)" fill="none" stroke="#fff" stroke-width="1"/>
      </g>
      <g id="Gruppe_272-8" data-name="Gruppe 272" transform="translate(-1380.5 -4731)">
        <line id="Linie_73-8" data-name="Linie 73" y1="2" transform="translate(1432 4731)" fill="none" stroke="#fff" stroke-width="1"/>
        <line id="Linie_74-8" data-name="Linie 74" y1="2" transform="translate(1430 4731)" fill="none" stroke="#fff" stroke-width="1"/>
        <line id="Linie_75-8" data-name="Linie 75" y1="2" transform="translate(1428 4731)" fill="none" stroke="#fff" stroke-width="1"/>
        <line id="Linie_76-8" data-name="Linie 76" y1="2" transform="translate(1426 4731)" fill="none" stroke="#fff" stroke-width="1"/>
      </g>
    </g>
    <g id="Wiederholungsraster_42" data-name="Wiederholungsraster 42" transform="translate(1527.5 4744) rotate(-180)" clip-path="url(#clip-path-4)">
      <g id="Gruppe_272-9" data-name="Gruppe 272" transform="translate(-1425.5 -4731)">
        <line id="Linie_73-9" data-name="Linie 73" y1="2" transform="translate(1432 4731)" fill="none" stroke="#fff" stroke-width="1"/>
        <line id="Linie_74-9" data-name="Linie 74" y1="2" transform="translate(1430 4731)" fill="none" stroke="#fff" stroke-width="1"/>
        <line id="Linie_75-9" data-name="Linie 75" y1="2" transform="translate(1428 4731)" fill="none" stroke="#fff" stroke-width="1"/>
        <line id="Linie_76-9" data-name="Linie 76" y1="2" transform="translate(1426 4731)" fill="none" stroke="#fff" stroke-width="1"/>
      </g>
      <g id="Gruppe_272-10" data-name="Gruppe 272" transform="translate(-1410.5 -4731)">
        <line id="Linie_73-10" data-name="Linie 73" y1="2" transform="translate(1432 4731)" fill="none" stroke="#fff" stroke-width="1"/>
        <line id="Linie_74-10" data-name="Linie 74" y1="2" transform="translate(1430 4731)" fill="none" stroke="#fff" stroke-width="1"/>
        <line id="Linie_75-10" data-name="Linie 75" y1="2" transform="translate(1428 4731)" fill="none" stroke="#fff" stroke-width="1"/>
        <line id="Linie_76-10" data-name="Linie 76" y1="2" transform="translate(1426 4731)" fill="none" stroke="#fff" stroke-width="1"/>
      </g>
    </g>
    <g id="Wiederholungsraster_43" data-name="Wiederholungsraster 43" transform="translate(1527.5 4735) rotate(-180)" clip-path="url(#clip-path-4)">
      <g id="Gruppe_272-11" data-name="Gruppe 272" transform="translate(-1425.5 -4731)">
        <line id="Linie_73-11" data-name="Linie 73" y1="2" transform="translate(1432 4731)" fill="none" stroke="#fff" stroke-width="1"/>
        <line id="Linie_74-11" data-name="Linie 74" y1="2" transform="translate(1430 4731)" fill="none" stroke="#fff" stroke-width="1"/>
        <line id="Linie_75-11" data-name="Linie 75" y1="2" transform="translate(1428 4731)" fill="none" stroke="#fff" stroke-width="1"/>
        <line id="Linie_76-11" data-name="Linie 76" y1="2" transform="translate(1426 4731)" fill="none" stroke="#fff" stroke-width="1"/>
      </g>
      <g id="Gruppe_272-12" data-name="Gruppe 272" transform="translate(-1410.5 -4731)">
        <line id="Linie_73-12" data-name="Linie 73" y1="2" transform="translate(1432 4731)" fill="none" stroke="#fff" stroke-width="1"/>
        <line id="Linie_74-12" data-name="Linie 74" y1="2" transform="translate(1430 4731)" fill="none" stroke="#fff" stroke-width="1"/>
        <line id="Linie_75-12" data-name="Linie 75" y1="2" transform="translate(1428 4731)" fill="none" stroke="#fff" stroke-width="1"/>
        <line id="Linie_76-12" data-name="Linie 76" y1="2" transform="translate(1426 4731)" fill="none" stroke="#fff" stroke-width="1"/>
      </g>
    </g>
  </g>
</svg>
