<svg xmlns="http://www.w3.org/2000/svg" xmlns:xlink="http://www.w3.org/1999/xlink" width="554" height="400" viewBox="0 0 554 400">
  <defs>
    <clipPath id="clip-path">
      <rect id="Rechteck_604" data-name="Rechteck 604" width="554" height="400" fill="none"/>
    </clipPath>
  </defs>
  <g id="Gruppe_maskieren_1" data-name="Gruppe maskieren 1" clip-path="url(#clip-path)">
    <g id="Ebene_1" transform="translate(-986.273 -1569.299)">
      <path id="Pfad_816" data-name="Pfad 816" d="M-284.867,277.124-128.1,563.718l282.972,162.5,160.469,286.554,282.962,162.5,160.479,286.553,282.962,162.5,158.035,282.214" transform="translate(284.867 2276.881)" fill="none" stroke="#36373a" stroke-miterlimit="10" stroke-width="1"/>
      <path id="Pfad_817" data-name="Pfad 817" d="M-273.2,265.454l156.768,286.594,282.962,162.5L327.012,1001.1l282.962,162.5,160.479,286.554,282.962,162.5,158.034,282.224" transform="translate(317.845 2243.338)" fill="none" stroke="#36373a" stroke-miterlimit="10" stroke-width="1"/>
      <path id="Pfad_818" data-name="Pfad 818" d="M-262.7,253.783l156.778,286.594,282.962,162.5L337.523,989.431l282.962,162.5,160.479,286.554,282.962,162.5,158.024,282.224" transform="translate(347.518 2209.795)" fill="none" stroke="#36373a" stroke-miterlimit="10" stroke-width="1"/>
      <path id="Pfad_819" data-name="Pfad 819" d="M-251.025,242.113-94.248,528.707,188.714,691.217,349.193,977.761l282.962,162.5,160.469,286.554,282.971,162.5,158.025,282.224" transform="translate(380.496 2176.252)" fill="none" stroke="#36373a" stroke-miterlimit="10" stroke-width="1"/>
      <path id="Pfad_820" data-name="Pfad 820" d="M-238.015,229.105-81.247,515.7,201.714,678.2,362.194,964.753l282.962,162.5,160.479,286.554,282.962,162.5,158.035,282.214" transform="translate(417.26 2138.865)" fill="none" stroke="#36373a" stroke-miterlimit="10" stroke-width="1"/>
      <path id="Pfad_821" data-name="Pfad 821" d="M-226.347,217.435-69.57,504.028l282.962,162.5L373.871,953.082l282.962,162.5,160.479,286.553,282.962,162.5L1258.3,1846.861" transform="translate(450.23 2105.323)" fill="none" stroke="#36373a" stroke-miterlimit="10" stroke-width="1"/>
      <path id="Pfad_822" data-name="Pfad 822" d="M-215.844,205.764-59.066,492.358,223.9,654.859,384.375,941.412l282.962,162.5,160.469,286.554,282.972,162.5L1268.8,1835.19" transform="translate(479.911 2071.78)" fill="none" stroke="#36373a" stroke-miterlimit="10" stroke-width="1"/>
      <path id="Pfad_823" data-name="Pfad 823" d="M-204.173,194.094-47.4,480.688,235.566,643.2,396.045,929.742l282.962,162.5L839.476,1378.8l282.972,162.5,158.025,282.223" transform="translate(512.888 2038.237)" fill="none" stroke="#36373a" stroke-miterlimit="10" stroke-width="1"/>
      <path id="Pfad_824" data-name="Pfad 824" d="M-191.165,181.086-34.388,467.68l282.962,162.5L409.053,916.734l282.962,162.5,160.479,286.553,282.962,162.5L1293.48,1810.5" transform="translate(549.646 2000.85)" fill="none" stroke="#36373a" stroke-miterlimit="10" stroke-width="1"/>
      <path id="Pfad_825" data-name="Pfad 825" d="M-179.495,169.416-22.717,456.009l282.962,162.5L420.724,905.063l282.962,162.5,160.479,286.554,282.962,162.5,158.025,282.224" transform="translate(582.623 1967.307)" fill="none" stroke="#36373a" stroke-miterlimit="10" stroke-width="1"/>
      <path id="Pfad_826" data-name="Pfad 826" d="M-168.991,157.745-12.214,444.339l282.962,162.5L431.227,893.393l282.962,162.5,160.469,286.554,282.972,162.5,158.025,282.223" transform="translate(612.304 1933.765)" fill="none" stroke="#36373a" stroke-miterlimit="10" stroke-width="1"/>
      <path id="Pfad_827" data-name="Pfad 827" d="M-157.321,146.075-.543,432.669,282.418,595.179,442.888,881.723l282.972,162.5,160.469,286.554,282.972,162.5L1327.325,1775.5" transform="translate(645.281 1900.222)" fill="none" stroke="#36373a" stroke-miterlimit="10" stroke-width="1"/>
      <path id="Pfad_828" data-name="Pfad 828" d="M-144.313,133.067,12.464,419.661l282.962,162.5L455.905,868.715l282.962,162.5,160.479,286.554,282.962,162.5,158.025,282.214" transform="translate(682.038 1862.835)" fill="none" stroke="#36373a" stroke-miterlimit="10" stroke-width="1"/>
      <path id="Pfad_829" data-name="Pfad 829" d="M-132.643,121.4,24.135,407.99,307.1,570.491,467.576,857.044l282.962,162.5L911.007,1306.1l282.972,162.5L1352,1750.823" transform="translate(715.016 1829.292)" fill="none" stroke="#36373a" stroke-miterlimit="10" stroke-width="1"/>
      <path id="Pfad_830" data-name="Pfad 830" d="M-122.139,109.726,34.638,396.32,317.6,558.821,478.069,845.374l282.972,162.5L921.51,1294.428l282.971,162.5,158.025,282.224" transform="translate(744.697 1795.749)" fill="none" stroke="#36373a" stroke-miterlimit="10" stroke-width="1"/>
      <path id="Pfad_831" data-name="Pfad 831" d="M-110.469,98.056,46.309,384.65,329.27,547.16,489.74,833.7,772.711,996.2l160.469,286.554,282.972,162.5,158.025,282.224" transform="translate(777.674 1762.207)" fill="none" stroke="#36373a" stroke-miterlimit="10" stroke-width="1"/>
      <path id="Pfad_832" data-name="Pfad 832" d="M-97.461,85.048,59.317,371.642l282.962,162.5L502.758,820.7,785.719,983.2,946.189,1269.75l282.972,162.5,158.025,282.214" transform="translate(814.431 1724.82)" fill="none" stroke="#36373a" stroke-miterlimit="10" stroke-width="1"/>
      <path id="Pfad_833" data-name="Pfad 833" d="M-85.791,73.378,70.987,359.971l282.962,162.5L514.428,809.025l282.962,162.5,160.469,286.553,282.972,162.5L1398.855,1702.8" transform="translate(847.409 1691.277)" fill="none" stroke="#36373a" stroke-miterlimit="10" stroke-width="1"/>
      <path id="Pfad_834" data-name="Pfad 834" d="M-75.287,61.707,81.491,348.3l282.962,162.51L524.922,797.355l282.971,162.5,160.469,286.553,282.972,162.5,158.025,282.224" transform="translate(877.089 1657.734)" fill="none" stroke="#36373a" stroke-miterlimit="10" stroke-width="1"/>
      <path id="Pfad_835" data-name="Pfad 835" d="M-63.617,50.037,93.161,336.631,376.123,499.141,536.592,785.685l282.972,162.5,160.469,286.553L1263,1397.239l158.025,282.224" transform="translate(910.067 1624.191)" fill="none" stroke="#36373a" stroke-miterlimit="10" stroke-width="1"/>
      <path id="Pfad_836" data-name="Pfad 836" d="M-50.609,37.029,106.169,323.623l282.962,162.5L549.61,772.677l282.962,162.5,160.47,286.553,282.972,162.5,158.025,282.214" transform="translate(946.824 1586.804)" fill="none" stroke="#36373a" stroke-miterlimit="10" stroke-width="1"/>
      <path id="Pfad_837" data-name="Pfad 837" d="M-38.938,25.359,117.839,311.952,400.8,474.453,561.27,761.006l282.972,162.5,160.469,286.553,282.971,162.5,158.025,282.224" transform="translate(979.802 1553.262)" fill="none" stroke="#36373a" stroke-miterlimit="10" stroke-width="1"/>
      <path id="Pfad_838" data-name="Pfad 838" d="M-28.435,13.688,128.343,300.282,411.3,462.793,571.774,749.336l282.971,162.5,160.469,286.553,282.972,162.5,158.025,282.224" transform="translate(1009.482 1519.719)" fill="none" stroke="#36373a" stroke-miterlimit="10" stroke-width="1"/>
      <path id="Pfad_839" data-name="Pfad 839" d="M-16.764,2.018,140,288.611,422.975,451.122,583.444,737.666l282.972,162.5,160.469,286.554,282.962,162.5,158.035,282.224" transform="translate(1042.46 1486.176)" fill="none" stroke="#36373a" stroke-miterlimit="10" stroke-width="1"/>
      <path id="Pfad_840" data-name="Pfad 840" d="M-3.756-10.969,153.021,275.624l282.962,162.5L596.452,724.679l282.972,162.5,160.469,286.543,282.972,162.511,158.025,282.214" transform="translate(1079.217 1448.849)" fill="none" stroke="#36373a" stroke-miterlimit="10" stroke-width="1"/>
      <path id="Pfad_841" data-name="Pfad 841" d="M7.914-22.64,164.691,263.954l282.962,162.5L608.123,713.008l282.971,162.5,160.469,286.554,282.972,162.5,158.025,282.214" transform="translate(1112.194 1415.306)" fill="none" stroke="#36373a" stroke-miterlimit="10" stroke-width="1"/>
      <path id="Pfad_842" data-name="Pfad 842" d="M18.418-34.31,175.185,252.284l282.972,162.5L618.626,701.338,901.6,863.838l160.469,286.554,282.962,162.5,158.034,282.224" transform="translate(1141.875 1381.763)" fill="none" stroke="#36373a" stroke-miterlimit="10" stroke-width="1"/>
      <path id="Pfad_843" data-name="Pfad 843" d="M30.088-45.98,186.856,240.613,469.827,403.124,630.3,689.667l282.962,162.5,160.479,286.554,282.962,162.5,158.035,282.223" transform="translate(1174.853 1348.22)" fill="none" stroke="#36373a" stroke-miterlimit="10" stroke-width="1"/>
      <path id="Pfad_844" data-name="Pfad 844" d="M43.1-58.988,199.873,227.605l282.962,162.5L643.3,676.66l282.972,162.5L1086.745,1125.7l282.972,162.511,158.025,282.214" transform="translate(1211.61 1310.833)" fill="none" stroke="#36373a" stroke-miterlimit="10" stroke-width="1"/>
      <path id="Pfad_845" data-name="Pfad 845" d="M54.766-70.659,211.544,215.935l282.962,162.5L654.975,664.989l282.972,162.5,160.47,286.554,282.972,162.5,158.025,282.214" transform="translate(1244.587 1277.291)" fill="none" stroke="#36373a" stroke-miterlimit="10" stroke-width="1"/>
      <path id="Pfad_846" data-name="Pfad 846" d="M65.27-82.329,222.037,204.265l282.972,162.5L665.478,653.319l282.962,162.5,160.479,286.553,282.962,162.5L1549.916,1547.1" transform="translate(1274.268 1243.748)" fill="none" stroke="#36373a" stroke-miterlimit="10" stroke-width="1"/>
      <path id="Pfad_847" data-name="Pfad 847" d="M76.94-94,233.708,192.594,516.669,355.1,677.149,641.648l282.962,162.5L1120.59,1090.7l282.962,162.5,158.035,282.224" transform="translate(1307.245 1210.205)" fill="none" stroke="#36373a" stroke-miterlimit="10" stroke-width="1"/>
      <path id="Pfad_848" data-name="Pfad 848" d="M89.948-107.007,246.725,179.586l282.962,162.5L690.156,628.64l282.972,162.5L1133.6,1077.685,1416.569,1240.2l158.025,282.214" transform="translate(1344.002 1172.818)" fill="none" stroke="#36373a" stroke-miterlimit="10" stroke-width="1"/>
      <path id="Pfad_849" data-name="Pfad 849" d="M101.618-118.678,258.386,167.916l282.972,162.5L701.827,616.97,984.8,779.471l160.469,286.553,282.962,162.5,158.035,282.214" transform="translate(1376.98 1139.275)" fill="none" stroke="#36373a" stroke-miterlimit="10" stroke-width="1"/>
      <path id="Pfad_850" data-name="Pfad 850" d="M112.122-130.348,268.89,156.246l282.962,162.5L712.331,605.3,995.292,767.8l160.479,286.554,282.962,162.5,158.035,282.224" transform="translate(1406.661 1105.733)" fill="none" stroke="#36373a" stroke-miterlimit="10" stroke-width="1"/>
      <path id="Pfad_851" data-name="Pfad 851" d="M123.79-142.018,280.567,144.575,563.529,307.086,724.008,593.629l282.962,162.5,160.479,286.553,282.962,162.5,158.025,282.224" transform="translate(1439.631 1072.19)" fill="none" stroke="#36373a" stroke-miterlimit="10" stroke-width="1"/>
      <path id="Pfad_852" data-name="Pfad 852" d="M136.8-155.026,293.568,131.567l282.972,162.5L737.009,580.621l282.972,162.5,160.469,286.544,282.962,162.511,158.035,282.214" transform="translate(1476.395 1034.803)" fill="none" stroke="#36373a" stroke-miterlimit="10" stroke-width="1"/>
      <path id="Pfad_853" data-name="Pfad 853" d="M148.471-166.7,305.238,119.9,588.21,282.4,748.679,568.951l282.961,162.5,160.479,286.553,282.962,162.5,158.035,282.214" transform="translate(1509.373 1001.26)" fill="none" stroke="#36373a" stroke-miterlimit="10" stroke-width="1"/>
      <path id="Pfad_854" data-name="Pfad 854" d="M158.972-178.367,315.749,108.227l282.962,162.5L759.19,557.281l282.962,162.5,160.479,286.553,282.961,162.5,158.035,282.224" transform="translate(1539.046 967.717)" fill="none" stroke="#36373a" stroke-miterlimit="10" stroke-width="1"/>
      <path id="Pfad_855" data-name="Pfad 855" d="M170.642-190.037,327.42,96.556,610.381,259.067,770.861,545.61l282.962,162.5L1214.3,994.665l282.962,162.5,158.025,282.224" transform="translate(1572.024 934.174)" fill="none" stroke="#36373a" stroke-miterlimit="10" stroke-width="1"/>
      <path id="Pfad_856" data-name="Pfad 856" d="M183.652-203.045,340.42,83.548l282.972,162.5L783.861,532.6l282.961,162.5L1227.3,981.647l282.962,162.511L1668.3,1426.371" transform="translate(1608.788 896.787)" fill="none" stroke="#36373a" stroke-miterlimit="10" stroke-width="1"/>
      <path id="Pfad_857" data-name="Pfad 857" d="M195.323-214.716,352.09,71.878l282.962,162.5L795.531,520.932l282.962,162.5,160.479,286.554,282.962,162.5L1679.969,1414.7" transform="translate(1641.766 863.245)" fill="none" stroke="#36373a" stroke-miterlimit="10" stroke-width="1"/>
      <path id="Pfad_858" data-name="Pfad 858" d="M205.824-226.386,362.6,60.208l282.962,162.5L806.042,509.262,1089,671.762l160.479,286.553,282.962,162.5,158.025,282.224" transform="translate(1671.439 829.702)" fill="none" stroke="#36373a" stroke-miterlimit="10" stroke-width="1"/>
      <path id="Pfad_859" data-name="Pfad 859" d="M217.494-238.056,374.272,48.537,657.233,211.048,817.712,497.591l282.962,162.5,160.469,286.553,282.972,162.5L1702.14,1391.37" transform="translate(1704.417 796.159)" fill="none" stroke="#36373a" stroke-miterlimit="10" stroke-width="1"/>
      <path id="Pfad_860" data-name="Pfad 860" d="M230.5-251.064,387.272,35.529l282.972,162.5L830.713,484.584l282.962,162.5,160.479,286.544,282.961,162.51,158.034,282.214" transform="translate(1741.181 758.772)" fill="none" stroke="#36373a" stroke-miterlimit="10" stroke-width="1"/>
      <path id="Pfad_861" data-name="Pfad 861" d="M242.175-262.735,398.943,23.859,681.9,186.36,842.383,472.913l282.962,162.5,160.479,286.553,282.962,162.5,158.025,282.214" transform="translate(1774.159 725.229)" fill="none" stroke="#36373a" stroke-miterlimit="10" stroke-width="1"/>
      <path id="Pfad_862" data-name="Pfad 862" d="M252.676-274.4,409.453,12.189l282.962,162.5L852.895,461.243l282.962,162.5L1296.335,910.3,1579.3,1072.8l158.025,282.224" transform="translate(1803.832 691.687)" fill="none" stroke="#36373a" stroke-miterlimit="10" stroke-width="1"/>
      <path id="Pfad_863" data-name="Pfad 863" d="M264.346-286.075,421.124.518,704.086,163.029,864.565,449.572l282.962,162.5L1308,898.627l282.972,162.5,158.025,282.224" transform="translate(1836.809 658.144)" fill="none" stroke="#36373a" stroke-miterlimit="10" stroke-width="1"/>
      <path id="Pfad_864" data-name="Pfad 864" d="M277.357-299.083,434.124-12.49l282.962,162.5L877.565,436.564l282.962,162.5,160.479,286.543,282.962,162.511L1762,1330.333" transform="translate(1873.574 620.757)" fill="none" stroke="#36373a" stroke-miterlimit="10" stroke-width="1"/>
      <path id="Pfad_865" data-name="Pfad 865" d="M289.025-310.754,445.8-24.16l282.962,162.5L889.243,424.894l282.962,162.5,160.479,286.553,282.962,162.5,158.024,282.224" transform="translate(1906.544 587.214)" fill="none" stroke="#36373a" stroke-miterlimit="10" stroke-width="1"/>
      <path id="Pfad_866" data-name="Pfad 866" d="M299.528-322.424,456.306-35.83l282.962,162.5L899.747,413.224l282.962,162.5,160.469,286.553,282.971,162.5L1784.174,1307" transform="translate(1936.225 553.671)" fill="none" stroke="#36373a" stroke-miterlimit="10" stroke-width="1"/>
      <path id="Pfad_867" data-name="Pfad 867" d="M311.2-334.094,467.976-47.5,750.938,115.01,911.407,401.553l282.972,162.5,160.47,286.553,282.971,162.5,158.025,282.224" transform="translate(1969.202 520.129)" fill="none" stroke="#36373a" stroke-miterlimit="10" stroke-width="1"/>
      <path id="Pfad_868" data-name="Pfad 868" d="M324.207-347.1,480.984-60.509l282.962,162.5L924.425,388.546l282.962,162.5L1367.866,837.59,1650.827,1000.1l158.025,282.214" transform="translate(2005.959 482.742)" fill="none" stroke="#36373a" stroke-miterlimit="10" stroke-width="1"/>
      <path id="Pfad_869" data-name="Pfad 869" d="M335.877-358.773,492.654-72.179l282.962,162.5L936.1,376.875l282.962,162.5,160.479,286.553L1662.5,988.43l158.025,282.224" transform="translate(2038.937 449.199)" fill="none" stroke="#36373a" stroke-miterlimit="10" stroke-width="1"/>
      <path id="Pfad_870" data-name="Pfad 870" d="M346.38-370.443,503.158-83.849,786.12,78.651,946.589,365.2l282.971,162.5L1390.03,814.259,1673,976.76l158.024,282.224" transform="translate(2068.618 415.656)" fill="none" stroke="#36373a" stroke-miterlimit="10" stroke-width="1"/>
      <path id="Pfad_871" data-name="Pfad 871" d="M358.051-382.113,514.828-95.52,797.79,66.991,958.259,353.534l282.972,162.5L1401.7,802.589l282.972,162.5L1842.7,1247.313" transform="translate(2101.595 382.113)" fill="none" stroke="#36373a" stroke-miterlimit="10" stroke-width="1"/>
    </g>
  </g>
</svg>
