<?xml version="1.0" encoding="UTF-8"?>
<svg xmlns="http://www.w3.org/2000/svg" width="520" height="200" viewBox="0 0 520 200" role="img" aria-label="Empty rack unit visualizer">
  <style>
    .frame { fill: #0d1117; stroke: #30363d; stroke-width: 2; }
    .rail { fill: #21262d; }
    .hole { fill: #f0f6fc; opacity: 0.92; }
    .content { fill: #161b22; }
    .u-slot { fill: none; stroke: #30363d; stroke-width: 1; }
    .u-label { fill: #8b949e; font-family: Arial, sans-serif; font-size: 10px; }
  </style>

  <rect class="frame" x="1" y="1" width="518" height="198" rx="8"/>

  <rect class="rail" x="16" y="14" width="24" height="172" rx="4"/>
  <rect class="rail" x="480" y="14" width="24" height="172" rx="4"/>

  <rect class="content" x="48" y="14" width="424" height="172" rx="4"/>

  <g>
    <circle class="hole" cx="28" cy="20" r="2"/><circle class="hole" cx="28" cy="27" r="2"/><circle class="hole" cx="28" cy="34" r="2"/>
    <circle class="hole" cx="28" cy="41" r="2"/><circle class="hole" cx="28" cy="48" r="2"/><circle class="hole" cx="28" cy="55" r="2"/>
    <circle class="hole" cx="28" cy="62" r="2"/><circle class="hole" cx="28" cy="69" r="2"/><circle class="hole" cx="28" cy="76" r="2"/>
    <circle class="hole" cx="28" cy="83" r="2"/><circle class="hole" cx="28" cy="90" r="2"/><circle class="hole" cx="28" cy="97" r="2"/>
    <circle class="hole" cx="28" cy="104" r="2"/><circle class="hole" cx="28" cy="111" r="2"/><circle class="hole" cx="28" cy="118" r="2"/>
    <circle class="hole" cx="28" cy="125" r="2"/><circle class="hole" cx="28" cy="132" r="2"/><circle class="hole" cx="28" cy="139" r="2"/>
    <circle class="hole" cx="28" cy="146" r="2"/><circle class="hole" cx="28" cy="153" r="2"/><circle class="hole" cx="28" cy="160" r="2"/>
    <circle class="hole" cx="28" cy="167" r="2"/><circle class="hole" cx="28" cy="174" r="2"/><circle class="hole" cx="28" cy="181" r="2"/>
  </g>

  <g>
    <circle class="hole" cx="492" cy="20" r="2"/><circle class="hole" cx="492" cy="27" r="2"/><circle class="hole" cx="492" cy="34" r="2"/>
    <circle class="hole" cx="492" cy="41" r="2"/><circle class="hole" cx="492" cy="48" r="2"/><circle class="hole" cx="492" cy="55" r="2"/>
    <circle class="hole" cx="492" cy="62" r="2"/><circle class="hole" cx="492" cy="69" r="2"/><circle class="hole" cx="492" cy="76" r="2"/>
    <circle class="hole" cx="492" cy="83" r="2"/><circle class="hole" cx="492" cy="90" r="2"/><circle class="hole" cx="492" cy="97" r="2"/>
    <circle class="hole" cx="492" cy="104" r="2"/><circle class="hole" cx="492" cy="111" r="2"/><circle class="hole" cx="492" cy="118" r="2"/>
    <circle class="hole" cx="492" cy="125" r="2"/><circle class="hole" cx="492" cy="132" r="2"/><circle class="hole" cx="492" cy="139" r="2"/>
    <circle class="hole" cx="492" cy="146" r="2"/><circle class="hole" cx="492" cy="153" r="2"/><circle class="hole" cx="492" cy="160" r="2"/>
    <circle class="hole" cx="492" cy="167" r="2"/><circle class="hole" cx="492" cy="174" r="2"/><circle class="hole" cx="492" cy="181" r="2"/>
  </g>

  <g>
    <rect class="u-slot" x="48" y="14" width="424" height="21.5"/>
    <rect class="u-slot" x="48" y="35.5" width="424" height="21.5"/>
    <rect class="u-slot" x="48" y="57" width="424" height="21.5"/>
    <rect class="u-slot" x="48" y="78.5" width="424" height="21.5"/>
    <rect class="u-slot" x="48" y="100" width="424" height="21.5"/>
    <rect class="u-slot" x="48" y="121.5" width="424" height="21.5"/>
    <rect class="u-slot" x="48" y="143" width="424" height="21.5"/>
    <rect class="u-slot" x="48" y="164.5" width="424" height="21.5"/>

    <text class="u-label" x="456" y="28">U8</text>
    <text class="u-label" x="456" y="49.5">U7</text>
    <text class="u-label" x="456" y="71">U6</text>
    <text class="u-label" x="456" y="92.5">U5</text>
    <text class="u-label" x="456" y="114">U4</text>
    <text class="u-label" x="456" y="135.5">U3</text>
    <text class="u-label" x="456" y="157">U2</text>
    <text class="u-label" x="456" y="178.5">U1</text>
  </g>
</svg>
