<?xml version="1.0" encoding="utf-8"?>
<!-- Generator: Adobe Illustrator 25.4.1, SVG Export Plug-In . SVG Version: 6.00 Build 0)  -->
<svg version="1.1" id="Ebene_1" xmlns="http://www.w3.org/2000/svg" xmlns:xlink="http://www.w3.org/1999/xlink" x="0px" y="0px"
	 viewBox="0 0 520 50" style="enable-background:new 0 0 520 50;" xml:space="preserve">
<style type="text/css">
	.st0{fill:none;}
	.st1{fill:none;stroke:#CCCCCC;stroke-dasharray:3;}
	.st2{display:none;}
	.st3{display:inline;fill:#EFEFEF;}
	.st4{display:inline;fill:#CCCCCC;}
	.st5{fill:#CCCCCC;}
	.st6{fill:#FFFFFF;}
</style>
<g id="Empty_-_1HE" transform="translate(-1034 -4713)">
	<g id="Rechteck_424" transform="translate(1044 4713)">
		<rect class="st0" width="500" height="50"/>
		<rect x="0.5" y="0.5" class="st1" width="499" height="49"/>
	</g>
	<g id="_1HE" transform="translate(3222 -5406)" class="st2">
		<rect id="Rechteck_356" x="-2188" y="10119" class="st3" width="10" height="50"/>
		<path id="Rechteck_357" class="st4" d="M-2188,10119h6l0,0v9c0,1.1-0.9,2-2,2h-4l0,0V10119L-2188,10119z"/>
		<circle id="Ellipse_76" class="st4" cx="-2183.5" cy="10151.5" r="2.5"/>
		<circle id="Ellipse_77" class="st4" cx="-2183.5" cy="10161.5" r="2.5"/>
	</g>
	<g id="_1HE-2" transform="translate(3732 -5406)" class="st2">
		<rect id="Rechteck_356-2" x="-2188" y="10119" class="st3" width="10" height="50"/>
		<path id="Rechteck_357-2" class="st4" d="M-2184,10119h6l0,0v11l0,0h-4c-1.1,0-2-0.9-2-2V10119L-2184,10119z"/>
		<circle id="Ellipse_76-2" class="st4" cx="-2183.5" cy="10151.5" r="2.5"/>
		<circle id="Ellipse_77-2" class="st4" cx="-2183.5" cy="10161.5" r="2.5"/>
	</g>
</g>
<rect class="st5" width="10" height="50"/>
<rect x="510" class="st5" width="10" height="50"/>
<rect x="511" y="2" class="st6" width="7" height="6.7"/>
<rect x="511" y="41.3" class="st6" width="7" height="6.7"/>
<rect x="511" y="21.7" class="st6" width="7" height="6.7"/>
<rect x="2" y="2" class="st6" width="7" height="6.7"/>
<rect x="2" y="41.3" class="st6" width="7" height="6.7"/>
<rect x="2" y="21.7" class="st6" width="7" height="6.7"/>
</svg>
