<svg xmlns="http://www.w3.org/2000/svg" viewBox="0 0 24 24" width="24" height="24" role="img" aria-hidden="true">
  <rect x="2" y="2" width="7" height="7" rx="1" fill="none" stroke="currentColor" stroke-width="1.5"/>
  <rect x="15" y="2" width="7" height="7" rx="1" fill="none" stroke="currentColor" stroke-width="1.5"/>
  <rect x="2" y="15" width="7" height="7" rx="1" fill="none" stroke="currentColor" stroke-width="1.5"/>
  <rect x="4" y="4" width="3" height="3" fill="currentColor"/>
  <rect x="17" y="4" width="3" height="3" fill="currentColor"/>
  <rect x="4" y="17" width="3" height="3" fill="currentColor"/>
  <rect x="11" y="2" width="2" height="2" fill="currentColor"/>
  <rect x="11" y="6" width="2" height="2" fill="currentColor"/>
  <rect x="11" y="11" width="2" height="2" fill="currentColor"/>
  <rect x="15" y="11" width="2" height="2" fill="currentColor"/>
  <rect x="19" y="11" width="2" height="2" fill="currentColor"/>
  <rect x="11" y="15" width="2" height="2" fill="currentColor"/>
  <rect x="15" y="15" width="3" height="2" fill="currentColor"/>
  <rect x="19" y="19" width="3" height="3" fill="currentColor"/>
</svg>
